<?xml version="1.0" encoding="UTF-8" standalone="no"?>
<!-- Created with Inkscape (http://www.inkscape.org/) -->
<svg
   xmlns:dc="http://purl.org/dc/elements/1.1/"
   xmlns:cc="http://creativecommons.org/ns#"
   xmlns:rdf="http://www.w3.org/1999/02/22-rdf-syntax-ns#"
   xmlns:svg="http://www.w3.org/2000/svg"
   xmlns="http://www.w3.org/2000/svg"
   xmlns:xlink="http://www.w3.org/1999/xlink"
   xmlns:sodipodi="http://sodipodi.sourceforge.net/DTD/sodipodi-0.dtd"
   xmlns:inkscape="http://www.inkscape.org/namespaces/inkscape"
   version="1.0"
   width="128"
   height="128"
   viewBox="0 0 124.584 88.732"
   id="Layer_1"
   xml:space="preserve"
   sodipodi:version="0.32"
   inkscape:version="0.46+devel"
   sodipodi:docname="call-incoming.svg"
   inkscape:output_extension="org.inkscape.output.svg.inkscape"><metadata
   id="metadata39278"><rdf:RDF><cc:Work
       rdf:about=""><dc:format>image/svg+xml</dc:format><dc:type
         rdf:resource="http://purl.org/dc/dcmitype/StillImage" /></cc:Work></rdf:RDF></metadata><sodipodi:namedview
   inkscape:window-height="856"
   inkscape:window-width="1436"
   inkscape:pageshadow="2"
   inkscape:pageopacity="0.0"
   guidetolerance="10.0"
   gridtolerance="10.0"
   objecttolerance="10.0"
   borderopacity="1.0"
   bordercolor="#666666"
   pagecolor="#ffffff"
   id="base"
   showgrid="false"
   inkscape:zoom="2.15625"
   inkscape:cx="64"
   inkscape:cy="64"
   inkscape:window-x="0"
   inkscape:window-y="22"
   inkscape:current-layer="g39282" /><defs
   id="defs643"><inkscape:perspective
     sodipodi:type="inkscape:persp3d"
     inkscape:vp_x="0 : 64 : 1"
     inkscape:vp_y="0 : 1000 : 0"
     inkscape:vp_z="128 : 64 : 1"
     inkscape:persp3d-origin="64 : 42.666667 : 1"
     id="perspective39280" /><radialGradient
     inkscape:collect="always"
     xlink:href="#XMLID_74_"
     id="radialGradient39302"
     gradientUnits="userSpaceOnUse"
     cx="62.292"
     cy="8.7803001"
     r="40.710899" /><linearGradient
     inkscape:collect="always"
     xlink:href="#XMLID_75_"
     id="linearGradient39304"
     gradientUnits="userSpaceOnUse"
     x1="5.3920999"
     y1="14.7554"
     x2="119.1924"
     y2="14.7554" /><radialGradient
     inkscape:collect="always"
     xlink:href="#XMLID_76_"
     id="radialGradient39306"
     gradientUnits="userSpaceOnUse"
     cx="109.2588"
     cy="24.2549"
     fx="109.7688"
     fy="15.8816"
     r="15.6304" /><radialGradient
     inkscape:collect="always"
     xlink:href="#XMLID_77_"
     id="radialGradient39308"
     gradientUnits="userSpaceOnUse"
     cx="89.372101"
     cy="10.2539"
     r="47.000999" /><radialGradient
     inkscape:collect="always"
     xlink:href="#XMLID_78_"
     id="radialGradient39310"
     gradientUnits="userSpaceOnUse"
     cx="15.3247"
     cy="24.2549"
     fx="17.275999"
     fy="17.991899"
     r="15.6301" /><radialGradient
     inkscape:collect="always"
     xlink:href="#XMLID_79_"
     id="radialGradient39312"
     gradientUnits="userSpaceOnUse"
     cx="15.8696"
     cy="25.728001"
     r="23.921" /><linearGradient
     inkscape:collect="always"
     xlink:href="#XMLID_80_"
     id="linearGradient39314"
     gradientUnits="userSpaceOnUse"
     x1="13.5981"
     y1="25.7397"
     x2="28.744499"
     y2="34.426899" /><linearGradient
     inkscape:collect="always"
     xlink:href="#XMLID_81_"
     id="linearGradient39316"
     gradientUnits="userSpaceOnUse"
     x1="61.819302"
     y1="15.6982"
     x2="61.819302"
     y2="1.6073999" /><inkscape:perspective
     id="perspective44319"
     inkscape:persp3d-origin="0.5 : 0.33333333 : 1"
     inkscape:vp_z="1 : 0.5 : 1"
     inkscape:vp_y="0 : 1000 : 0"
     inkscape:vp_x="0 : 0.5 : 1"
     sodipodi:type="inkscape:persp3d" /><radialGradient
     inkscape:collect="always"
     xlink:href="#linearGradient3614"
     id="radialGradient3620"
     cx="63.479675"
     cy="86.68618"
     fx="63.589275"
     fy="93.724815"
     r="14.569106"
     gradientTransform="matrix(1,0,0,0.3071429,0,60.06114)"
     gradientUnits="userSpaceOnUse" /><linearGradient
     inkscape:collect="always"
     id="linearGradient3614"><stop
       style="stop-color:#000610;stop-opacity:1"
       offset="0"
       id="stop3616" /><stop
       style="stop-color:#00204d;stop-opacity:0"
       offset="1"
       id="stop3618" /></linearGradient><linearGradient
     inkscape:collect="always"
     xlink:href="#linearGradient3484"
     id="linearGradient3500"
     x1="64"
     y1="0.83577234"
     x2="65.323578"
     y2="90.539841"
     gradientUnits="userSpaceOnUse" /><linearGradient
     inkscape:collect="always"
     id="linearGradient3484"><stop
       style="stop-color:#65c530;stop-opacity:1"
       offset="0"
       id="stop3486" /><stop
       style="stop-color:#00481b;stop-opacity:1"
       offset="1"
       id="stop3488" /></linearGradient><radialGradient
     inkscape:collect="always"
     xlink:href="#linearGradient3504"
     id="radialGradient3515"
     gradientUnits="userSpaceOnUse"
     gradientTransform="matrix(1.2693596,0,0,1.2352941,-17.239013,-10.823529)"
     cx="63.999996"
     cy="83.235466"
     fx="63.999992"
     fy="73.057167"
     r="34" /><linearGradient
     inkscape:collect="always"
     id="linearGradient3504"><stop
       style="stop-color:#000000;stop-opacity:1;"
       offset="0"
       id="stop3506" /><stop
       style="stop-color:#000000;stop-opacity:0;"
       offset="1"
       id="stop3508" /></linearGradient><radialGradient
     inkscape:collect="always"
     xlink:href="#linearGradient4026"
     id="radialGradient4032"
     cx="64.1875"
     cy="83.96875"
     fx="64.1875"
     fy="83.96875"
     r="1.65625"
     gradientTransform="matrix(2.0053076,0,0,26.804309,-64.528179,-2166.7555)"
     gradientUnits="userSpaceOnUse" /><linearGradient
     inkscape:collect="always"
     id="linearGradient4026"><stop
       style="stop-color:#37a42c;stop-opacity:1;"
       offset="0"
       id="stop4028" /><stop
       style="stop-color:#37a42c;stop-opacity:0;"
       offset="1"
       id="stop4030" /></linearGradient><filter
     inkscape:collect="always"
     x="-0.21584906"
     width="1.4316981"
     y="-0.088682175"
     height="1.1773643"
     id="filter4094"><feGaussianBlur
       inkscape:collect="always"
       stdDeviation="0.29791667"
       id="feGaussianBlur4096" /></filter><radialGradient
     inkscape:collect="always"
     xlink:href="#linearGradient3564"
     id="radialGradient3881"
     gradientUnits="userSpaceOnUse"
     gradientTransform="matrix(1.0493741,0.7142043,-4.2850311e-2,6.2959586e-2,-5.7506979,14.511114)"
     cx="42.890472"
     cy="70.185112"
     fx="42.890472"
     fy="70.185097"
     r="34" /><linearGradient
     inkscape:collect="always"
     id="linearGradient3564"><stop
       style="stop-color:#ffffff;stop-opacity:1;"
       offset="0"
       id="stop3566" /><stop
       style="stop-color:#ffffff;stop-opacity:0;"
       offset="1"
       id="stop3568" /></linearGradient><filter
     inkscape:collect="always"
     x="-0.14682242"
     width="1.2936448"
     y="-0.20594278"
     height="1.4118856"
     id="filter3999"><feGaussianBlur
       inkscape:collect="always"
       stdDeviation="0.36737188"
       id="feGaussianBlur4001" /></filter><radialGradient
     inkscape:collect="always"
     xlink:href="#linearGradient3564"
     id="radialGradient4005"
     gradientUnits="userSpaceOnUse"
     gradientTransform="matrix(1.0493741,0.7142043,-4.2850311e-2,6.2959586e-2,-5.7506979,14.511114)"
     cx="42.890472"
     cy="70.185112"
     fx="42.890472"
     fy="70.185097"
     r="34" /><radialGradient
     inkscape:collect="always"
     xlink:href="#linearGradient3504"
     id="radialGradient3511"
     cx="64"
     cy="49.46299"
     fx="63.999996"
     fy="39.284687"
     r="34"
     gradientTransform="matrix(1.2693596,0,0,1.2352941,-17.239013,-10.823529)"
     gradientUnits="userSpaceOnUse" /><radialGradient
     inkscape:collect="always"
     xlink:href="#linearGradient3717"
     id="radialGradient3796"
     gradientUnits="userSpaceOnUse"
     gradientTransform="matrix(2.3734742,2.8285964,-0.7980414,0.6696362,-31.241037,-123.14417)"
     cx="48.765625"
     cy="44.78125"
     fx="48.765625"
     fy="44.78125"
     r="6.359375" /><linearGradient
     inkscape:collect="always"
     id="linearGradient3717"><stop
       style="stop-color:#3bd22c;stop-opacity:1"
       offset="0"
       id="stop3719" /><stop
       style="stop-color:#00ff00;stop-opacity:0;"
       offset="1"
       id="stop3721" /></linearGradient><filter
     inkscape:collect="always"
     x="-0.1808424"
     width="1.3616848"
     y="-0.17359164"
     height="1.3471833"
     id="filter3790"><feGaussianBlur
       inkscape:collect="always"
       stdDeviation="0.95837054"
       id="feGaussianBlur3792" /></filter><radialGradient
     inkscape:collect="always"
     xlink:href="#linearGradient3717"
     id="radialGradient3723"
     cx="48.765625"
     cy="44.78125"
     fx="48.765625"
     fy="44.78125"
     r="6.359375"
     gradientTransform="matrix(2.3734742,2.8285964,-0.7980414,0.6696362,-31.241037,-123.14417)"
     gradientUnits="userSpaceOnUse" /><radialGradient
     inkscape:collect="always"
     xlink:href="#linearGradient3531"
     id="radialGradient3490"
     cx="64"
     cy="69.332474"
     fx="64"
     fy="69.332474"
     r="30"
     gradientTransform="matrix(1.2655345,0,0,1.6030104,-16.994207,-35.586207)"
     gradientUnits="userSpaceOnUse" /><linearGradient
     id="linearGradient3531"
     inkscape:collect="always"><stop
       id="stop3533"
       offset="0"
       style="stop-color:#8ecf3b;stop-opacity:1" /><stop
       id="stop3535"
       offset="1"
       style="stop-color:#104800;stop-opacity:1" /></linearGradient><linearGradient
     inkscape:collect="always"
     xlink:href="#linearGradient3537"
     id="linearGradient3544"
     x1="68.275612"
     y1="88.698792"
     x2="68.275612"
     y2="26.631338"
     gradientUnits="userSpaceOnUse" /><linearGradient
     inkscape:collect="always"
     id="linearGradient3537"><stop
       style="stop-color:#e3e8c2;stop-opacity:1;"
       offset="0"
       id="stop3540" /><stop
       style="stop-color:#e3e8c2;stop-opacity:0;"
       offset="1"
       id="stop3542" /></linearGradient><filter
     inkscape:collect="always"
     id="filter3527"><feGaussianBlur
       inkscape:collect="always"
       stdDeviation="0.35"
       id="feGaussianBlur3529" /></filter><linearGradient
     inkscape:collect="always"
     xlink:href="#linearGradient3553"
     id="linearGradient3559"
     x1="65.427643"
     y1="6.8787603"
     x2="65.427643"
     y2="65.011742"
     gradientUnits="userSpaceOnUse" /><linearGradient
     inkscape:collect="always"
     id="linearGradient3553"><stop
       style="stop-color:#dde8c2;stop-opacity:1;"
       offset="0"
       id="stop3555" /><stop
       style="stop-color:#dde8c2;stop-opacity:0;"
       offset="1"
       id="stop3557" /></linearGradient><linearGradient
     inkscape:collect="always"
     xlink:href="#linearGradient3586"
     id="linearGradient3592"
     x1="75.122101"
     y1="63.073883"
     x2="59.655514"
     y2="36.433231"
     gradientUnits="userSpaceOnUse" /><linearGradient
     inkscape:collect="always"
     id="linearGradient3586"><stop
       style="stop-color:#fafcf5;stop-opacity:1;"
       offset="0"
       id="stop3588" /><stop
       style="stop-color:#fafcf5;stop-opacity:0;"
       offset="1"
       id="stop3590" /></linearGradient><radialGradient
     inkscape:collect="always"
     xlink:href="#linearGradient3564"
     id="radialGradient3570"
     cx="50.53125"
     cy="6.265625"
     fx="50.53125"
     fy="6.265625"
     r="2.53125"
     gradientTransform="matrix(5.0224753,5.9855536,-1.0410751,0.8735657,-196.73772,-301.66531)"
     gradientUnits="userSpaceOnUse" /><filter
     inkscape:collect="always"
     x="-0.20574956"
     width="1.4114991"
     y="-0.22987191"
     height="1.4597439"
     id="filter3696"><feGaussianBlur
       inkscape:collect="always"
       stdDeviation="0.43400298"
       id="feGaussianBlur3698" /></filter><radialGradient
     inkscape:collect="always"
     xlink:href="#linearGradient3564"
     id="radialGradient3702"
     gradientUnits="userSpaceOnUse"
     gradientTransform="matrix(5.0224753,5.9855536,-1.0410751,0.8735657,-196.73772,-301.66531)"
     cx="50.53125"
     cy="6.265625"
     fx="50.53125"
     fy="6.265625"
     r="2.53125" /><filter
     inkscape:collect="always"
     x="-0.30320987"
     width="1.6064198"
     y="-0.33875862"
     height="1.6775172"
     id="filter3866"><feGaussianBlur
       inkscape:collect="always"
       stdDeviation="0.63958333"
       id="feGaussianBlur3868" /></filter><radialGradient
     r="2.53125"
     fy="6.265625"
     fx="50.53125"
     cy="6.265625"
     cx="50.53125"
     gradientTransform="matrix(5.0224753,5.9855536,-1.0410751,0.8735657,-196.73772,-301.66531)"
     gradientUnits="userSpaceOnUse"
     id="radialGradient44435"
     xlink:href="#linearGradient3564"
     inkscape:collect="always" /></defs>
<radialGradient
   cx="62.292"
   cy="8.7803001"
   r="40.710899"
   id="XMLID_74_"
   gradientUnits="userSpaceOnUse">
	<stop
   style="stop-color:#79b5e5;stop-opacity:1"
   offset="0"
   id="stop4" />
	<stop
   style="stop-color:#4a8cd9;stop-opacity:1"
   offset="0.73030001"
   id="stop6" />
	<stop
   style="stop-color:#4788d5;stop-opacity:1"
   offset="0.79619998"
   id="stop8" />
	<stop
   style="stop-color:#3e7ac9;stop-opacity:1"
   offset="0.86860001"
   id="stop10" />
	<stop
   style="stop-color:#2f64b5;stop-opacity:1"
   offset="0.94379997"
   id="stop12" />
	<stop
   style="stop-color:#204fa1;stop-opacity:1"
   offset="1"
   id="stop14" />
</radialGradient>

<linearGradient
   x1="5.3920999"
   y1="14.7554"
   x2="119.1924"
   y2="14.7554"
   id="XMLID_75_"
   gradientUnits="userSpaceOnUse">
	<stop
   style="stop-color:#bae1ff;stop-opacity:1"
   offset="0"
   id="stop19" />
	<stop
   style="stop-color:#1a66bf;stop-opacity:1"
   offset="0.5"
   id="stop21" />
	<stop
   style="stop-color:#204fa1;stop-opacity:1"
   offset="1"
   id="stop23" />
</linearGradient>

<radialGradient
   cx="109.2588"
   cy="24.2549"
   r="15.6304"
   fx="109.7688"
   fy="15.8816"
   id="XMLID_76_"
   gradientUnits="userSpaceOnUse">
	<stop
   style="stop-color:#ffffff;stop-opacity:1"
   offset="0"
   id="stop28" />
	<stop
   style="stop-color:#79b5e5;stop-opacity:1"
   offset="0.30899999"
   id="stop30" />
	<stop
   style="stop-color:#79b5e5;stop-opacity:1"
   offset="0.46630001"
   id="stop32" />
	<stop
   style="stop-color:#4a8cd9;stop-opacity:1"
   offset="1"
   id="stop34" />
</radialGradient>

<radialGradient
   cx="89.372101"
   cy="10.2539"
   r="47.000999"
   id="XMLID_77_"
   gradientUnits="userSpaceOnUse">
	<stop
   style="stop-color:#ffffff;stop-opacity:1"
   offset="0"
   id="stop39" />
	<stop
   style="stop-color:#1a66bf;stop-opacity:1"
   offset="0.83710003"
   id="stop41" />
	<stop
   style="stop-color:#0f3880;stop-opacity:1"
   offset="0.99440002"
   id="stop43" />
</radialGradient>

<radialGradient
   cx="15.3247"
   cy="24.2549"
   r="15.6301"
   fx="17.275999"
   fy="17.991899"
   id="XMLID_78_"
   gradientUnits="userSpaceOnUse">
	<stop
   style="stop-color:#ffffff;stop-opacity:1"
   offset="0"
   id="stop48" />
	<stop
   style="stop-color:#79b5e5;stop-opacity:1"
   offset="0.30899999"
   id="stop50" />
	<stop
   style="stop-color:#79b5e5;stop-opacity:1"
   offset="0.46630001"
   id="stop52" />
	<stop
   style="stop-color:#4a8cd9;stop-opacity:1"
   offset="1"
   id="stop54" />
</radialGradient>

<radialGradient
   cx="15.8696"
   cy="25.728001"
   r="23.921"
   id="XMLID_79_"
   gradientUnits="userSpaceOnUse">
	<stop
   style="stop-color:#ffffff;stop-opacity:1"
   offset="0"
   id="stop59" />
	<stop
   style="stop-color:#1a66bf;stop-opacity:1"
   offset="0.62360001"
   id="stop61" />
	<stop
   style="stop-color:#204fa1;stop-opacity:1"
   offset="1"
   id="stop63" />
</radialGradient>

<linearGradient
   x1="13.5981"
   y1="25.7397"
   x2="28.744499"
   y2="34.426899"
   id="XMLID_80_"
   gradientUnits="userSpaceOnUse">
	<stop
   style="stop-color:#ffffff;stop-opacity:1"
   offset="0"
   id="stop68" />
	<stop
   style="stop-color:#204fa1;stop-opacity:1"
   offset="1"
   id="stop70" />
</linearGradient>

<linearGradient
   x1="61.819302"
   y1="15.6982"
   x2="61.819302"
   y2="1.6073999"
   id="XMLID_81_"
   gradientUnits="userSpaceOnUse">
	<stop
   style="stop-color:#bae1ff;stop-opacity:1"
   offset="0"
   id="stop75" />
	<stop
   style="stop-color:#1a66bf;stop-opacity:1"
   offset="0.55059999"
   id="stop77" />
	<stop
   style="stop-color:#ffffff;stop-opacity:1"
   offset="1"
   id="stop79" />
</linearGradient>
<g
   id="g39282"><g
     id="g39292"
     transform="matrix(0.7271846,-0.6864419,0.6864419,0.7271846,9.5214815,80.741509)"><path
       d="m 29.388,17.561 c 8.735,-5.594 9.495,-3.938 32.904,-3.938 23.411,0 24.027,-1.656 32.762,3.938 2.99,-1.914 24.139,0.409 24.139,-1.811 C 119.193,7.053 93.718,0 62.293,0 30.868,0 5.393,7.053 5.393,15.75 5.392,17.97 26.399,15.646 29.388,17.561 z"
       style="fill:url(#radialGradient39302)"
       id="path16" /><path
       d="m 95.054,15.668 c -8.734,-4.99 -9.351,-3.514 -32.762,-3.514 -23.409,0 -24.168,-1.477 -32.904,3.514 -2.806,-1.604 -21.487,0.125 -23.766,-1.295 -0.143,0.454 -0.23,0.913 -0.23,1.377 0,2.22 21.007,-0.104 23.996,1.811 8.735,-5.594 9.495,-3.938 32.904,-3.938 23.411,0 24.027,-1.656 32.762,3.938 2.99,-1.914 24.139,0.409 24.139,-1.811 0,-0.464 -0.088,-0.924 -0.231,-1.378 -2.288,1.421 -21.102,-0.309 -23.908,1.296 z"
       style="fill:url(#linearGradient39304)"
       id="path25" /><path
       d="m 124.584,23.649 c 0,3.74 -1.341,11.708 -3.564,14.369 -2.812,3.36 -7.03,2.091 -11.762,0.956 -8.229,-1.975 -15.323,-6.86 -15.323,-15.325 0,-4.182 1.674,-7.974 4.39,-10.738 4.455,-1.938 6.652,-4.586 10.934,-4.586 8.463,0 15.325,6.861 15.325,15.324 z"
       style="fill:url(#radialGradient39306)"
       id="path36" /><path
       d="m 122.359,15.728 c 0.695,1.751 1.09,3.653 1.09,5.652 0,3.74 -1.34,11.708 -3.566,14.368 -2.81,3.36 -7.03,2.092 -11.759,0.956 -5.581,-1.339 -10.63,-4.021 -13.308,-8.244 2.132,5.55 7.922,8.95 14.441,10.515 4.731,1.135 8.949,2.404 11.762,-0.956 2.224,-2.661 3.564,-10.629 3.564,-14.369 0.001,-2.904 -0.821,-5.608 -2.224,-7.922 z"
       style="fill:url(#radialGradient39308)"
       id="path45" /><path
       d="m 0,23.649 c 0,3.74 1.339,11.708 3.565,14.369 2.811,3.36 7.029,2.091 11.76,0.956 8.23,-1.975 15.325,-6.86 15.325,-15.325 0,-3.878 -1.44,-7.421 -3.817,-10.119 C 19.534,11.351 19.91,8.325 15.325,8.325 6.86,8.325 0,15.186 0,23.649 z"
       style="fill:url(#radialGradient39310)"
       id="path56" /><path
       d="M 16.46,36.704 C 11.729,37.84 9.766,34.48 6.375,31.706 2.507,28.541 1.53,17.477 2.226,15.727 0.823,18.041 0,20.746 0,23.649 c 0,3.74 1.339,11.708 3.565,14.369 2.811,3.36 7.029,2.091 11.76,0.956 6.519,-1.564 12.312,-4.965 14.444,-10.515 -2.679,4.224 -7.729,6.905 -13.309,8.245 z"
       style="fill:url(#radialGradient39312)"
       id="path65" /><path
       d="m 30.591,22.379 -1.407,-2.324 c 0,0 -0.542,2.199 -8.39,12.882 -2.605,2.232 -6.767,5.134 -9.144,6.31 0.37,-0.09 3.297,-0.181 3.675,-0.271 8.23,-1.975 15.325,-6.86 15.325,-15.325 -0.001,-0.429 -0.025,-0.853 -0.059,-1.272 z"
       style="opacity:0.5;fill:url(#linearGradient39314)"
       id="path72" /><path
       d="M 7.897,14.964 C 12.552,8.439 34.298,4.62 61.82,4.62 c 27.521,0 47.034,2.815 51.691,9.338 0.562,-0.135 5.49,1.918 5.345,1.712 C 112.766,7.095 92.706,1.608 61.82,1.608 30.937,1.608 10.132,7.095 4.785,15.67 4.652,15.883 7.335,14.83 7.897,14.964 z"
       style="fill:url(#linearGradient39316)"
       id="path81" /></g><g
     transform="matrix(0.8896172,0,0,0.8896172,-24.318537,-20.019434)"
     id="g44294"><path
       sodipodi:type="arc"
       style="opacity:0.24761903;fill:url(#radialGradient3620);fill-opacity:1;fill-rule:evenodd;stroke:none"
       id="path3610"
       sodipodi:cx="63.479675"
       sodipodi:cy="86.68618"
       sodipodi:rx="14.569106"
       sodipodi:ry="4.4747968"
       d="m 78.048781,86.68618 c 0,2.470088 -6.526959,4.474797 -14.569106,4.474797 -8.042146,0 -14.569106,-2.004709 -14.569106,-4.474797 0,-2.470088 6.52696,-4.474797 14.569106,-4.474797 8.042147,0 14.569106,2.004709 14.569106,4.474797 z"
       transform="matrix(1.8990107,0,0,4.0434783,-56.652645,-273.71368)" /><path
       style="fill:none;stroke:url(#linearGradient3500);stroke-width:8;stroke-linecap:round;stroke-linejoin:round;stroke-miterlimit:4;stroke-opacity:1;stroke-dasharray:none"
       d="M 52,8 52,48 34,48 64,84 94,48 76,48 76,8 52,8 z"
       id="path3492"
       sodipodi:nodetypes="cccccccc" /><path
       style="opacity:0.75714285;fill:none;stroke:url(#radialGradient3515);stroke-width:8;stroke-linecap:round;stroke-linejoin:round;stroke-miterlimit:4;stroke-opacity:1;stroke-dasharray:none"
       d="M 52,8 52,48 34,48 64,84 94,48 76,48 76,8 52,8 z"
       id="path3513"
       sodipodi:nodetypes="cccccccc" /><path
       id="path4007"
       d="m 63.90625,79.9375 -1.375,7.75 C 62.996614,87.872736 63.487327,88 64,88 c 0.651546,1e-06 1.279358,-0.174573 1.84375,-0.46875 l -1.9375,-7.59375 z"
       style="opacity:0.65714285;fill:url(#radialGradient4032);fill-opacity:1;fill-rule:evenodd;stroke:none;filter:url(#filter4094)" /><path
       id="path3872"
       d="m 31.59375,45.28125 c -0.395314,0.353984 -0.735928,0.782345 -0.96875,1.28125 -0.282237,0.604794 -0.408062,1.265278 -0.375,1.90625 l 6,1.09375 -4.65625,-4.28125 z"
       style="opacity:0.78666669;fill:url(#radialGradient3881);fill-opacity:1;fill-rule:evenodd;stroke:none;filter:url(#filter3999)" /><path
       transform="matrix(-1,0,0,1,128.24484,0)"
       style="opacity:0.78666669;fill:url(#radialGradient4005);fill-opacity:1;fill-rule:evenodd;stroke:none;filter:url(#filter3999)"
       d="m 31.59375,45.28125 c -0.395314,0.353984 -0.735928,0.782345 -0.96875,1.28125 -0.282237,0.604794 -0.408062,1.265278 -0.375,1.90625 l 6,1.09375 -4.65625,-4.28125 z"
       id="path4003" /><path
       sodipodi:nodetypes="cccccccc"
       id="path3502"
       d="M 52,8 52,48 34,48 64,84 94,48 76,48 76,8 52,8 z"
       style="fill:none;stroke:url(#radialGradient3511);stroke-width:8;stroke-linecap:round;stroke-linejoin:round;stroke-miterlimit:4;stroke-opacity:1;stroke-dasharray:none" /><path
       transform="matrix(-1,0,0,1,127.53125,0)"
       style="opacity:0.32857145;fill:url(#radialGradient3796);fill-opacity:1;fill-rule:evenodd;stroke:none;filter:url(#filter3790)"
       d="M 48,38.15625 48,44 42.40625,44 54.0625,51.40625 c 0.415889,-0.250795 0.763316,-0.557632 1.0625,-0.9375 L 48,38.15625 z"
       id="path3794" /><path
       id="path3704"
       d="M 48,38.15625 48,44 42.40625,44 54.0625,51.40625 c 0.415889,-0.250795 0.763316,-0.557632 1.0625,-0.9375 L 48,38.15625 z"
       style="opacity:0.47619048;fill:url(#radialGradient3723);fill-opacity:1;fill-rule:evenodd;stroke:none;filter:url(#filter3790)" /><path
       sodipodi:nodetypes="cccccccc"
       id="path3473"
       d="M 52,8 52,48 34,48 64,84 94,48 76,48 76,8 52,8 z"
       style="fill:url(#radialGradient3490);fill-opacity:1;fill-rule:evenodd;stroke:none" /><path
       style="fill:none;stroke:url(#linearGradient3544);stroke-width:1;stroke-linecap:round;stroke-linejoin:round;stroke-miterlimit:4;stroke-opacity:1;stroke-dasharray:none;filter:url(#filter3527)"
       d="M 52,8 52,48 34,48 64,84 94,48 76,48 76,8 52,8 z"
       id="path3517"
       sodipodi:nodetypes="cccccccc" /><path
       id="path3546"
       d="m 52,8 0,40 -18,0 6.65625,8 c 1.929741,0.091837 3.900298,0.125 5.875,0.125 15.933938,0 30.510316,-3.063408 41.78125,-8.125 L 76,48 76,8 52,8 z"
       style="opacity:0.90952376;fill:url(#linearGradient3559);fill-opacity:1;fill-rule:evenodd;stroke:none" /><path
       id="path3563"
       d="m 52,8 0,0.75 24,0 L 76,8 52,8 z M 34,48 34.625,48.75 52,48.75 52,48 34,48 z m 42,0 0,0.75 17.375,0 L 94,48 76,48 z"
       style="fill:#d8e8c2;fill-opacity:1;fill-rule:evenodd;stroke:none" /><path
       id="path3576"
       d="m 75.0625,8 0,39.46875 0.9375,0 L 76,8 75.0625,8 z M 86.25,48 c -11.180682,4.683621 -25.386369,7.5 -40.875,7.5 -1.756881,0 -3.493813,-0.025384 -5.21875,-0.09375 l 0.5,0.59375 c 1.929741,0.091837 3.900298,0.125 5.875,0.125 15.933938,0 30.510316,-3.063408 41.78125,-8.125 L 86.25,48 z"
       style="opacity:0.90952376;fill:url(#linearGradient3592);fill-opacity:1;fill-rule:evenodd;stroke:none" /><path
       id="path2387"
       d="m 52,4 c -2.209048,0.0002209 -3.999779,1.7909525 -4,4 l 0,0.09375 5.0625,0.4375 L 52.25,4 52,4 z"
       style="opacity:0.88095236;fill:url(#radialGradient3570);fill-opacity:1;fill-rule:evenodd;stroke:none;filter:url(#filter3696)" /><path
       transform="matrix(-1,0,0,1,127.8125,0)"
       style="opacity:0.74761903;fill:url(#radialGradient44435);fill-opacity:1;fill-rule:evenodd;stroke:none;filter:url(#filter3866)"
       d="m 52,4 c -2.209048,0.0002209 -3.999779,1.7909525 -4,4 l 0,0.09375 5.0625,0.4375 L 52.25,4 52,4 z"
       id="path3700" /></g></g>
<linearGradient
   x1="62.292"
   y1="73.028297"
   x2="62.292"
   y2="15.5151"
   id="XMLID_82_"
   gradientUnits="userSpaceOnUse"
   gradientTransform="translate(164.30643,-6.3194783)">
	<stop
   style="stop-color:#ffffff;stop-opacity:1"
   offset="0"
   id="stop84" />
	<stop
   style="stop-color:#def1ff;stop-opacity:1"
   offset="0.0503"
   id="stop86" />
	<stop
   style="stop-color:#c4e5ff;stop-opacity:1"
   offset="0.0998"
   id="stop88" />
	<stop
   style="stop-color:#bae1ff;stop-opacity:1"
   offset="0.1292"
   id="stop90" />
	<stop
   style="stop-color:#4a8cd9;stop-opacity:1"
   offset="1"
   id="stop92" />
</linearGradient>


<linearGradient
   x1="62.2925"
   y1="88.732399"
   x2="62.2925"
   y2="83.084"
   id="XMLID_103_"
   gradientUnits="userSpaceOnUse">
	<stop
   style="stop-color:#204fa1;stop-opacity:1"
   offset="0"
   id="stop279" />
	<stop
   style="stop-color:#4a8cd9;stop-opacity:1"
   offset="1"
   id="stop281" />
</linearGradient>


<linearGradient
   x1="60.1479"
   y1="50.498001"
   x2="60.1479"
   y2="-5.1406002"
   id="XMLID_106_"
   gradientUnits="userSpaceOnUse"
   gradientTransform="matrix(0.8426,0,0,0.7918,196.68293,-57.640448)">
	<stop
   style="stop-color:#79b5e5;stop-opacity:1"
   offset="0"
   id="stop306" />
	<stop
   style="stop-color:#bae1ff;stop-opacity:1"
   offset="0.55620003"
   id="stop308" />
	<stop
   style="stop-color:#204fa1;stop-opacity:1"
   offset="1"
   id="stop310" />
</linearGradient>

<radialGradient
   cx="58.8018"
   cy="-23.2593"
   r="73.982597"
   id="XMLID_107_"
   gradientUnits="userSpaceOnUse"
   gradientTransform="translate(-139.47991,-118.71591)">
	<stop
   style="stop-color:#7d7d77;stop-opacity:1"
   offset="0"
   id="stop315" />
	<stop
   style="stop-color:#eeeeee;stop-opacity:1"
   offset="0.1621"
   id="stop317" />
	<stop
   style="stop-color:#e5e5e5;stop-opacity:1"
   offset="0.2978"
   id="stop319" />
	<stop
   style="stop-color:#555753;stop-opacity:1"
   offset="1"
   id="stop321" />
</radialGradient>

<radialGradient
   cx="60.1455"
   cy="-17.5068"
   r="77.993401"
   id="XMLID_108_"
   gradientUnits="userSpaceOnUse"
   gradientTransform="matrix(0.8426,0,0,0.6899,-235.29854,4.8804217)">
	<stop
   style="stop-color:#ffffff;stop-opacity:1"
   offset="0"
   id="stop326" />
	<stop
   style="stop-color:#eeeeee;stop-opacity:1"
   offset="0.1621"
   id="stop328" />
	<stop
   style="stop-color:#babdb6;stop-opacity:1"
   offset="0.264"
   id="stop330" />
	<stop
   style="stop-color:#555753;stop-opacity:1"
   offset="0.55059999"
   id="stop332" />
	<stop
   style="stop-color:#babdb6;stop-opacity:1"
   offset="0.77530003"
   id="stop334" />
	<stop
   style="stop-color:#eeeeee;stop-opacity:1"
   offset="1"
   id="stop336" />
</radialGradient>










<radialGradient
   cx="58.505402"
   cy="30.394501"
   r="28.741199"
   id="XMLID_127_"
   gradientUnits="userSpaceOnUse">
	<stop
   style="stop-color:#eeeeec;stop-opacity:1"
   offset="0"
   id="stop485" />
	<stop
   style="stop-color:#d3d7cf;stop-opacity:1"
   offset="0.1927"
   id="stop487" />
	<stop
   style="stop-color:#babdb6;stop-opacity:1"
   offset="0.35389999"
   id="stop489" />
	<stop
   style="stop-color:#555753;stop-opacity:1"
   offset="0.99440002"
   id="stop491" />
</radialGradient>

<radialGradient
   cx="60.061501"
   cy="56.609402"
   r="23.858801"
   id="XMLID_128_"
   gradientUnits="userSpaceOnUse"
   gradientTransform="matrix(0.8426,0,0,0.9057,-146.89038,52.358383)">
	<stop
   style="stop-color:#ffffff;stop-opacity:1"
   offset="0"
   id="stop496" />
	<stop
   style="stop-color:#babdb6;stop-opacity:1"
   offset="0.35389999"
   id="stop498" />
	<stop
   style="stop-color:#656565;stop-opacity:1"
   offset="0.99440002"
   id="stop500" />
</radialGradient>

<linearGradient
   x1="43.562"
   y1="10.9736"
   x2="43.562"
   y2="19.6758"
   id="XMLID_129_"
   gradientUnits="userSpaceOnUse">
	<stop
   style="stop-color:#79b5e5;stop-opacity:1"
   offset="0"
   id="stop505" />
	<stop
   style="stop-color:#1a66bf;stop-opacity:1"
   offset="1"
   id="stop507" />
</linearGradient>

<linearGradient
   x1="9.8978996"
   y1="10.9741"
   x2="9.8978996"
   y2="19.6763"
   id="XMLID_130_"
   gradientUnits="userSpaceOnUse"
   gradientTransform="matrix(-1,0,0,1,90.9199,0)">
	<stop
   style="stop-color:#79b5e5;stop-opacity:1"
   offset="0"
   id="stop512" />
	<stop
   style="stop-color:#1a66bf;stop-opacity:1"
   offset="1"
   id="stop514" />
</linearGradient>

<linearGradient
   x1="42.929699"
   y1="16.8965"
   x2="36.762901"
   y2="10.7297"
   id="XMLID_131_"
   gradientUnits="userSpaceOnUse">
	<stop
   style="stop-color:#1a66bf;stop-opacity:1"
   offset="0"
   id="stop519" />
	<stop
   style="stop-color:#204fa1;stop-opacity:1"
   offset="1"
   id="stop521" />
</linearGradient>


<linearGradient
   x1="43.159698"
   y1="11.1836"
   x2="43.159698"
   y2="17.2402"
   id="XMLID_133_"
   gradientUnits="userSpaceOnUse"
   gradientTransform="translate(114.65339,-46.041913)">
	<stop
   style="stop-color:#bae1ff;stop-opacity:1"
   offset="0"
   id="stop528" />
	<stop
   style="stop-color:#4a8cd9;stop-opacity:1"
   offset="1"
   id="stop530" />
</linearGradient>

<linearGradient
   x1="77.542"
   y1="16.7812"
   x2="89.041702"
   y2="12.2814"
   id="XMLID_134_"
   gradientUnits="userSpaceOnUse">
	<stop
   style="stop-color:#1a66bf;stop-opacity:1"
   offset="0"
   id="stop535" />
	<stop
   style="stop-color:#204fa1;stop-opacity:1"
   offset="1"
   id="stop537" />
</linearGradient>


<linearGradient
   x1="81.424797"
   y1="10.3657"
   x2="81.424797"
   y2="17.3666"
   id="XMLID_136_"
   gradientUnits="userSpaceOnUse"
   gradientTransform="matrix(1,0,0,-16.188379,0,200.50244)">
	<stop
   style="stop-color:#bae1ff;stop-opacity:1"
   offset="0"
   id="stop544" />
	<stop
   style="stop-color:#4a8cd9;stop-opacity:1"
   offset="1"
   id="stop546" />
</linearGradient>

<radialGradient
   cx="69.6035"
   cy="47.722698"
   r="16.312901"
   id="XMLID_137_"
   gradientUnits="userSpaceOnUse"
   gradientTransform="matrix(1.057,-0.21,0.2079,1.0465,134.21257,54.6459)">
	<stop
   style="stop-color:#555753;stop-opacity:1"
   offset="0.2753"
   id="stop551" />
	<stop
   style="stop-color:#888a85;stop-opacity:1"
   offset="0.55059999"
   id="stop553" />
	<stop
   style="stop-color:#ffffff;stop-opacity:1"
   offset="0.7978"
   id="stop555" />
	<stop
   style="stop-color:#2e3436;stop-opacity:1"
   offset="1"
   id="stop557" />
</radialGradient>










</svg>