<?xml version="1.0" encoding="UTF-8" standalone="no"?>
<!-- Created with Inkscape (http://www.inkscape.org/) -->
<svg
   xmlns:dc="http://purl.org/dc/elements/1.1/"
   xmlns:cc="http://creativecommons.org/ns#"
   xmlns:rdf="http://www.w3.org/1999/02/22-rdf-syntax-ns#"
   xmlns:svg="http://www.w3.org/2000/svg"
   xmlns="http://www.w3.org/2000/svg"
   xmlns:xlink="http://www.w3.org/1999/xlink"
   xmlns:sodipodi="http://sodipodi.sourceforge.net/DTD/sodipodi-0.dtd"
   xmlns:inkscape="http://www.inkscape.org/namespaces/inkscape"
   version="1.0"
   width="128"
   height="128"
   viewBox="0 0 124.584 88.732"
   id="Layer_1"
   xml:space="preserve"
   sodipodi:version="0.32"
   inkscape:version="0.46+devel"
   sodipodi:docname="call-missed.svg"
   inkscape:output_extension="org.inkscape.output.svg.inkscape"><metadata
   id="metadata39278"><rdf:RDF><cc:Work
       rdf:about=""><dc:format>image/svg+xml</dc:format><dc:type
         rdf:resource="http://purl.org/dc/dcmitype/StillImage" /></cc:Work></rdf:RDF></metadata><sodipodi:namedview
   inkscape:window-height="856"
   inkscape:window-width="1436"
   inkscape:pageshadow="2"
   inkscape:pageopacity="0.0"
   guidetolerance="10.0"
   gridtolerance="10.0"
   objecttolerance="10.0"
   borderopacity="1.0"
   bordercolor="#666666"
   pagecolor="#ffffff"
   id="base"
   showgrid="false"
   inkscape:zoom="5.09375"
   inkscape:cx="64"
   inkscape:cy="64"
   inkscape:window-x="0"
   inkscape:window-y="22"
   inkscape:current-layer="g39282" /><defs
   id="defs643"><inkscape:perspective
     sodipodi:type="inkscape:persp3d"
     inkscape:vp_x="0 : 64 : 1"
     inkscape:vp_y="0 : 1000 : 0"
     inkscape:vp_z="128 : 64 : 1"
     inkscape:persp3d-origin="64 : 42.666667 : 1"
     id="perspective39280" /><radialGradient
     inkscape:collect="always"
     xlink:href="#XMLID_74_"
     id="radialGradient39302"
     gradientUnits="userSpaceOnUse"
     cx="62.292"
     cy="8.7803001"
     r="40.710899" /><linearGradient
     inkscape:collect="always"
     xlink:href="#XMLID_75_"
     id="linearGradient39304"
     gradientUnits="userSpaceOnUse"
     x1="5.3920999"
     y1="14.7554"
     x2="119.1924"
     y2="14.7554" /><radialGradient
     inkscape:collect="always"
     xlink:href="#XMLID_76_"
     id="radialGradient39306"
     gradientUnits="userSpaceOnUse"
     cx="109.2588"
     cy="24.2549"
     fx="109.7688"
     fy="15.8816"
     r="15.6304" /><radialGradient
     inkscape:collect="always"
     xlink:href="#XMLID_77_"
     id="radialGradient39308"
     gradientUnits="userSpaceOnUse"
     cx="89.372101"
     cy="10.2539"
     r="47.000999" /><radialGradient
     inkscape:collect="always"
     xlink:href="#XMLID_78_"
     id="radialGradient39310"
     gradientUnits="userSpaceOnUse"
     cx="15.3247"
     cy="24.2549"
     fx="17.275999"
     fy="17.991899"
     r="15.6301" /><radialGradient
     inkscape:collect="always"
     xlink:href="#XMLID_79_"
     id="radialGradient39312"
     gradientUnits="userSpaceOnUse"
     cx="15.8696"
     cy="25.728001"
     r="23.921" /><linearGradient
     inkscape:collect="always"
     xlink:href="#XMLID_80_"
     id="linearGradient39314"
     gradientUnits="userSpaceOnUse"
     x1="13.5981"
     y1="25.7397"
     x2="28.744499"
     y2="34.426899" /><linearGradient
     inkscape:collect="always"
     xlink:href="#XMLID_81_"
     id="linearGradient39316"
     gradientUnits="userSpaceOnUse"
     x1="61.819302"
     y1="15.6982"
     x2="61.819302"
     y2="1.6073999" /><inkscape:perspective
     id="perspective44319"
     inkscape:persp3d-origin="0.5 : 0.33333333 : 1"
     inkscape:vp_z="1 : 0.5 : 1"
     inkscape:vp_y="0 : 1000 : 0"
     inkscape:vp_x="0 : 0.5 : 1"
     sodipodi:type="inkscape:persp3d" /><linearGradient
     inkscape:collect="always"
     id="linearGradient3564"><stop
       style="stop-color:#ffffff;stop-opacity:1;"
       offset="0"
       id="stop3566" /><stop
       style="stop-color:#ffffff;stop-opacity:0;"
       offset="1"
       id="stop3568" /></linearGradient><radialGradient
     inkscape:collect="always"
     xlink:href="#linearGradient3564"
     id="radialGradient3702"
     gradientUnits="userSpaceOnUse"
     gradientTransform="matrix(5.0224753,5.9855536,-1.0410751,0.8735657,-196.73772,-301.66531)"
     cx="50.53125"
     cy="6.265625"
     fx="50.53125"
     fy="6.265625"
     r="2.53125" /><inkscape:perspective
     id="perspective2851"
     inkscape:persp3d-origin="0.5 : 0.33333333 : 1"
     inkscape:vp_z="1 : 0.5 : 1"
     inkscape:vp_y="0 : 1000 : 0"
     inkscape:vp_x="0 : 0.5 : 1"
     sodipodi:type="inkscape:persp3d" /><linearGradient
     id="linearGradient6404"><stop
       id="stop6406"
       offset="0"
       style="stop-color:#081e3e;stop-opacity:1;" /><stop
       id="stop6408"
       offset="1"
       style="stop-color:#387de4;stop-opacity:1;" /></linearGradient><linearGradient
     inkscape:collect="always"
     id="linearGradient3260"><stop
       style="stop-color:#ffffff;stop-opacity:1;"
       offset="0"
       id="stop3262" /><stop
       style="stop-color:#ffffff;stop-opacity:0;"
       offset="1"
       id="stop3264" /></linearGradient><linearGradient
     id="linearGradient3202"><stop
       style="stop-color:#cdeeff;stop-opacity:1;"
       offset="0"
       id="stop3204" /><stop
       style="stop-color:#d2e8ed;stop-opacity:0;"
       offset="1"
       id="stop3206" /></linearGradient><linearGradient
     id="linearGradient3295"><stop
       style="stop-color:#63e9ff;stop-opacity:1;"
       offset="0"
       id="stop3297" /><stop
       style="stop-color:#ffffff;stop-opacity:0;"
       offset="1"
       id="stop3299" /></linearGradient><radialGradient
     inkscape:collect="always"
     xlink:href="#linearGradient6666"
     id="radialGradient3011"
     gradientUnits="userSpaceOnUse"
     gradientTransform="matrix(1,0,0,1.1383929,0,-10.517857)"
     cx="180.33144"
     cy="95.705101"
     fx="180.33144"
     fy="95.705101"
     r="56" /><linearGradient
     id="linearGradient6666"><stop
       style="stop-color:#9fc1f2;stop-opacity:1;"
       offset="0"
       id="stop6668" /><stop
       id="stop3183"
       offset="0.5"
       style="stop-color:#587eb5;stop-opacity:1;" /><stop
       style="stop-color:#0c2a58;stop-opacity:1;"
       offset="1"
       id="stop6670" /></linearGradient><radialGradient
     inkscape:collect="always"
     xlink:href="#linearGradient6666"
     id="radialGradient2906"
     gradientUnits="userSpaceOnUse"
     gradientTransform="matrix(1,0,0,1.1383929,0,-10.517857)"
     cx="180.33144"
     cy="95.705101"
     fx="180.33144"
     fy="95.705101"
     r="56" /><linearGradient
     id="linearGradient2908"><stop
       style="stop-color:#9fc1f2;stop-opacity:1;"
       offset="0"
       id="stop2910" /><stop
       id="stop2912"
       offset="0.5"
       style="stop-color:#587eb5;stop-opacity:1;" /><stop
       style="stop-color:#0c2a58;stop-opacity:1;"
       offset="1"
       id="stop2914" /></linearGradient><linearGradient
     inkscape:collect="always"
     xlink:href="#linearGradient3295"
     id="linearGradient2226"
     gradientUnits="userSpaceOnUse"
     x1="179.17224"
     y1="123.75864"
     x2="180.40749"
     y2="62.959969" /><linearGradient
     id="linearGradient2917"><stop
       style="stop-color:#63e9ff;stop-opacity:1;"
       offset="0"
       id="stop2919" /><stop
       style="stop-color:#ffffff;stop-opacity:0;"
       offset="1"
       id="stop2921" /></linearGradient><filter
     inkscape:collect="always"
     id="filter3187"><feGaussianBlur
       inkscape:collect="always"
       stdDeviation="0.56525828"
       id="feGaussianBlur3189" /></filter><linearGradient
     id="linearGradient2926"><stop
       style="stop-color:#63e9ff;stop-opacity:1;"
       offset="0"
       id="stop2928" /><stop
       style="stop-color:#ffffff;stop-opacity:0;"
       offset="1"
       id="stop2930" /></linearGradient><linearGradient
     id="linearGradient2933"><stop
       style="stop-color:#cdeeff;stop-opacity:1;"
       offset="0"
       id="stop2935" /><stop
       style="stop-color:#d2e8ed;stop-opacity:0;"
       offset="1"
       id="stop2937" /></linearGradient><linearGradient
     inkscape:collect="always"
     xlink:href="#linearGradient3260"
     id="linearGradient3071"
     gradientUnits="userSpaceOnUse"
     gradientTransform="translate(-110.95955,-70.953293)"
     x1="238.95955"
     y1="154.86557"
     x2="194.50755"
     y2="87.140793" /><inkscape:perspective
     id="perspective24112"
     inkscape:persp3d-origin="35.999996 : 24.00057 : 1"
     inkscape:vp_z="71.999992 : 36.000854 : 1"
     inkscape:vp_y="0 : 1000 : 0"
     inkscape:vp_x="0 : 36.000854 : 1"
     sodipodi:type="inkscape:persp3d" /><linearGradient
     gradientTransform="translate(-54.166219,-72.473513)"
     gradientUnits="userSpaceOnUse"
     xlink:href="#linearGradient3953"
     id="linearGradient3315"
     y2="66.832726"
     x2="93.099838"
     y1="112.08241"
     x1="93.099838" /><linearGradient
     id="linearGradient3953"><stop
       offset="0"
       style="stop-color:#e0e0e0;stop-opacity:1"
       id="stop3955" /><stop
       offset="1"
       style="stop-color:#ffffff;stop-opacity:1"
       id="stop3957" /></linearGradient><linearGradient
     gradientTransform="translate(1.8337837,-72.473513)"
     gradientUnits="userSpaceOnUse"
     xlink:href="#linearGradient3535"
     id="linearGradient3550"
     y2="104.69202"
     x2="38.737919"
     y1="58.851654"
     x1="41.246826" /><linearGradient
     id="linearGradient3535"><stop
       offset="0"
       style="stop-color:#f9ccca;stop-opacity:1"
       id="stop3537" /><stop
       offset="1"
       style="stop-color:#f9ccca;stop-opacity:0"
       id="stop3539" /></linearGradient><linearGradient
     gradientTransform="translate(1.8337837,-72.473513)"
     gradientUnits="userSpaceOnUse"
     xlink:href="#linearGradient3331"
     id="linearGradient3533"
     y2="74.327278"
     x2="54.427418"
     y1="101.17589"
     x1="65.490807" /><linearGradient
     id="linearGradient3331"><stop
       offset="0"
       style="stop-color:#f9ccca;stop-opacity:1"
       id="stop3333" /><stop
       offset="1"
       style="stop-color:#f9ccca;stop-opacity:0"
       id="stop3335" /></linearGradient><radialGradient
     gradientTransform="matrix(3.637084,1e-7,-1.1200436e-7,4.0736926,-296.77794,-355.25325)"
     gradientUnits="userSpaceOnUse"
     xlink:href="#linearGradient3319"
     id="radialGradient3325"
     fy="92"
     fx="92"
     r="8"
     cy="92"
     cx="92" /><linearGradient
     id="linearGradient3319"><stop
       offset="0"
       style="stop-color:#590000;stop-opacity:1"
       id="stop3321" /><stop
       offset="1"
       style="stop-color:#590000;stop-opacity:0"
       id="stop3323" /></linearGradient><filter
     id="filter3327"
     height="1.0627692"
     y="-0.031384613"
     width="1.204"
     x="-0.102"><feGaussianBlur
       id="feGaussianBlur3329"
       stdDeviation="0.68"
       inkscape:collect="always" /></filter><linearGradient
     gradientTransform="translate(1.8337837,-72.473513)"
     gradientUnits="userSpaceOnUse"
     xlink:href="#linearGradient2328"
     id="linearGradient3497"
     y2="103.29678"
     x2="71.069473"
     y1="48.784237"
     x1="57.477966" /><linearGradient
     id="linearGradient2328"><stop
       offset="0"
       style="stop-color:#f9ccca;stop-opacity:1"
       id="stop2330" /><stop
       offset="1"
       style="stop-color:#f9ccca;stop-opacity:0"
       id="stop2332" /></linearGradient><radialGradient
     gradientTransform="matrix(0.852261,0,0,0.2449215,7.1545137,14.938745)"
     gradientUnits="userSpaceOnUse"
     xlink:href="#linearGradient3300"
     id="radialGradient3510"
     fy="141.14491"
     fx="36.0144"
     r="31.9856"
     cy="127.72298"
     cx="36.0144" /><linearGradient
     id="linearGradient3300"><stop
       offset="0"
       style="stop-color:#f9ccca;stop-opacity:1"
       id="stop3302" /><stop
       offset="1"
       style="stop-color:#f9ccca;stop-opacity:0"
       id="stop3304" /></linearGradient><filter
     id="filter3516"><feGaussianBlur
       id="feGaussianBlur3518"
       stdDeviation="0.51861359"
       inkscape:collect="always" /></filter><radialGradient
     gradientTransform="matrix(0.457792,-4.14982e-8,-2.087256e-7,1.9108522,-119.64616,-156.27191)"
     gradientUnits="userSpaceOnUse"
     xlink:href="#linearGradient3640"
     id="radialGradient3714"
     fy="81.462906"
     fx="344.75519"
     r="36"
     cy="92"
     cx="343.99899" /><linearGradient
     id="linearGradient3640"><stop
       offset="0"
       style="stop-color:#ffffff;stop-opacity:1"
       id="stop3642" /><stop
       offset="1"
       style="stop-color:#ffffff;stop-opacity:0"
       id="stop3644" /></linearGradient><linearGradient
     gradientTransform="matrix(0,1,-1,0,-39.9985,140.0029)"
     gradientUnits="userSpaceOnUse"
     xlink:href="#linearGradient3294"
     id="linearGradient3490"
     y2="-383.9971"
     x2="-11.91648"
     y1="-383.9971"
     x1="-70.002899" /><linearGradient
     gradientTransform="matrix(0,1,-1,0,-39.9985,140.0029)"
     gradientUnits="userSpaceOnUse"
     id="linearGradient3294"
     y2="-383.9971"
     x2="-12.0029"
     y1="-383.9971"
     x1="-84.002403"><stop
       offset="0"
       style="stop-color:#e20800;stop-opacity:1"
       id="stop3296" /><stop
       offset="1"
       style="stop-color:#bf0303;stop-opacity:1"
       id="stop3298" /></linearGradient><linearGradient
     gradientTransform="matrix(0,1,-1,0,-39.9985,140.0029)"
     gradientUnits="userSpaceOnUse"
     xlink:href="#linearGradient3294"
     id="linearGradient24059"
     y2="-383.9971"
     x2="-11.91648"
     y1="-383.9971"
     x1="-70.002899" /></defs>
<radialGradient
   cx="62.292"
   cy="8.7803001"
   r="40.710899"
   id="XMLID_74_"
   gradientUnits="userSpaceOnUse">
	<stop
   style="stop-color:#79b5e5;stop-opacity:1"
   offset="0"
   id="stop4" />
	<stop
   style="stop-color:#4a8cd9;stop-opacity:1"
   offset="0.73030001"
   id="stop6" />
	<stop
   style="stop-color:#4788d5;stop-opacity:1"
   offset="0.79619998"
   id="stop8" />
	<stop
   style="stop-color:#3e7ac9;stop-opacity:1"
   offset="0.86860001"
   id="stop10" />
	<stop
   style="stop-color:#2f64b5;stop-opacity:1"
   offset="0.94379997"
   id="stop12" />
	<stop
   style="stop-color:#204fa1;stop-opacity:1"
   offset="1"
   id="stop14" />
</radialGradient>

<linearGradient
   x1="5.3920999"
   y1="14.7554"
   x2="119.1924"
   y2="14.7554"
   id="XMLID_75_"
   gradientUnits="userSpaceOnUse">
	<stop
   style="stop-color:#bae1ff;stop-opacity:1"
   offset="0"
   id="stop19" />
	<stop
   style="stop-color:#1a66bf;stop-opacity:1"
   offset="0.5"
   id="stop21" />
	<stop
   style="stop-color:#204fa1;stop-opacity:1"
   offset="1"
   id="stop23" />
</linearGradient>

<radialGradient
   cx="109.2588"
   cy="24.2549"
   r="15.6304"
   fx="109.7688"
   fy="15.8816"
   id="XMLID_76_"
   gradientUnits="userSpaceOnUse">
	<stop
   style="stop-color:#ffffff;stop-opacity:1"
   offset="0"
   id="stop28" />
	<stop
   style="stop-color:#79b5e5;stop-opacity:1"
   offset="0.30899999"
   id="stop30" />
	<stop
   style="stop-color:#79b5e5;stop-opacity:1"
   offset="0.46630001"
   id="stop32" />
	<stop
   style="stop-color:#4a8cd9;stop-opacity:1"
   offset="1"
   id="stop34" />
</radialGradient>

<radialGradient
   cx="89.372101"
   cy="10.2539"
   r="47.000999"
   id="XMLID_77_"
   gradientUnits="userSpaceOnUse">
	<stop
   style="stop-color:#ffffff;stop-opacity:1"
   offset="0"
   id="stop39" />
	<stop
   style="stop-color:#1a66bf;stop-opacity:1"
   offset="0.83710003"
   id="stop41" />
	<stop
   style="stop-color:#0f3880;stop-opacity:1"
   offset="0.99440002"
   id="stop43" />
</radialGradient>

<radialGradient
   cx="15.3247"
   cy="24.2549"
   r="15.6301"
   fx="17.275999"
   fy="17.991899"
   id="XMLID_78_"
   gradientUnits="userSpaceOnUse">
	<stop
   style="stop-color:#ffffff;stop-opacity:1"
   offset="0"
   id="stop48" />
	<stop
   style="stop-color:#79b5e5;stop-opacity:1"
   offset="0.30899999"
   id="stop50" />
	<stop
   style="stop-color:#79b5e5;stop-opacity:1"
   offset="0.46630001"
   id="stop52" />
	<stop
   style="stop-color:#4a8cd9;stop-opacity:1"
   offset="1"
   id="stop54" />
</radialGradient>

<radialGradient
   cx="15.8696"
   cy="25.728001"
   r="23.921"
   id="XMLID_79_"
   gradientUnits="userSpaceOnUse">
	<stop
   style="stop-color:#ffffff;stop-opacity:1"
   offset="0"
   id="stop59" />
	<stop
   style="stop-color:#1a66bf;stop-opacity:1"
   offset="0.62360001"
   id="stop61" />
	<stop
   style="stop-color:#204fa1;stop-opacity:1"
   offset="1"
   id="stop63" />
</radialGradient>

<linearGradient
   x1="13.5981"
   y1="25.7397"
   x2="28.744499"
   y2="34.426899"
   id="XMLID_80_"
   gradientUnits="userSpaceOnUse">
	<stop
   style="stop-color:#ffffff;stop-opacity:1"
   offset="0"
   id="stop68" />
	<stop
   style="stop-color:#204fa1;stop-opacity:1"
   offset="1"
   id="stop70" />
</linearGradient>

<linearGradient
   x1="61.819302"
   y1="15.6982"
   x2="61.819302"
   y2="1.6073999"
   id="XMLID_81_"
   gradientUnits="userSpaceOnUse">
	<stop
   style="stop-color:#bae1ff;stop-opacity:1"
   offset="0"
   id="stop75" />
	<stop
   style="stop-color:#1a66bf;stop-opacity:1"
   offset="0.55059999"
   id="stop77" />
	<stop
   style="stop-color:#ffffff;stop-opacity:1"
   offset="1"
   id="stop79" />
</linearGradient>
<g
   id="g39282"><g
     id="g39292"
     transform="matrix(0.7271846,-0.6864419,0.6864419,0.7271846,9.5214815,80.741509)"><path
       d="m 29.388,17.561 c 8.735,-5.594 9.495,-3.938 32.904,-3.938 23.411,0 24.027,-1.656 32.762,3.938 2.99,-1.914 24.139,0.409 24.139,-1.811 C 119.193,7.053 93.718,0 62.293,0 30.868,0 5.393,7.053 5.393,15.75 5.392,17.97 26.399,15.646 29.388,17.561 z"
       style="fill:url(#radialGradient39302)"
       id="path16" /><path
       d="m 95.054,15.668 c -8.734,-4.99 -9.351,-3.514 -32.762,-3.514 -23.409,0 -24.168,-1.477 -32.904,3.514 -2.806,-1.604 -21.487,0.125 -23.766,-1.295 -0.143,0.454 -0.23,0.913 -0.23,1.377 0,2.22 21.007,-0.104 23.996,1.811 8.735,-5.594 9.495,-3.938 32.904,-3.938 23.411,0 24.027,-1.656 32.762,3.938 2.99,-1.914 24.139,0.409 24.139,-1.811 0,-0.464 -0.088,-0.924 -0.231,-1.378 -2.288,1.421 -21.102,-0.309 -23.908,1.296 z"
       style="fill:url(#linearGradient39304)"
       id="path25" /><path
       d="m 124.584,23.649 c 0,3.74 -1.341,11.708 -3.564,14.369 -2.812,3.36 -7.03,2.091 -11.762,0.956 -8.229,-1.975 -15.323,-6.86 -15.323,-15.325 0,-4.182 1.674,-7.974 4.39,-10.738 4.455,-1.938 6.652,-4.586 10.934,-4.586 8.463,0 15.325,6.861 15.325,15.324 z"
       style="fill:url(#radialGradient39306)"
       id="path36" /><path
       d="m 122.359,15.728 c 0.695,1.751 1.09,3.653 1.09,5.652 0,3.74 -1.34,11.708 -3.566,14.368 -2.81,3.36 -7.03,2.092 -11.759,0.956 -5.581,-1.339 -10.63,-4.021 -13.308,-8.244 2.132,5.55 7.922,8.95 14.441,10.515 4.731,1.135 8.949,2.404 11.762,-0.956 2.224,-2.661 3.564,-10.629 3.564,-14.369 0.001,-2.904 -0.821,-5.608 -2.224,-7.922 z"
       style="fill:url(#radialGradient39308)"
       id="path45" /><path
       d="m 0,23.649 c 0,3.74 1.339,11.708 3.565,14.369 2.811,3.36 7.029,2.091 11.76,0.956 8.23,-1.975 15.325,-6.86 15.325,-15.325 0,-3.878 -1.44,-7.421 -3.817,-10.119 C 19.534,11.351 19.91,8.325 15.325,8.325 6.86,8.325 0,15.186 0,23.649 z"
       style="fill:url(#radialGradient39310)"
       id="path56" /><path
       d="M 16.46,36.704 C 11.729,37.84 9.766,34.48 6.375,31.706 2.507,28.541 1.53,17.477 2.226,15.727 0.823,18.041 0,20.746 0,23.649 c 0,3.74 1.339,11.708 3.565,14.369 2.811,3.36 7.029,2.091 11.76,0.956 6.519,-1.564 12.312,-4.965 14.444,-10.515 -2.679,4.224 -7.729,6.905 -13.309,8.245 z"
       style="fill:url(#radialGradient39312)"
       id="path65" /><path
       d="m 30.591,22.379 -1.407,-2.324 c 0,0 -0.542,2.199 -8.39,12.882 -2.605,2.232 -6.767,5.134 -9.144,6.31 0.37,-0.09 3.297,-0.181 3.675,-0.271 8.23,-1.975 15.325,-6.86 15.325,-15.325 -0.001,-0.429 -0.025,-0.853 -0.059,-1.272 z"
       style="opacity:0.5;fill:url(#linearGradient39314)"
       id="path72" /><path
       d="M 7.897,14.964 C 12.552,8.439 34.298,4.62 61.82,4.62 c 27.521,0 47.034,2.815 51.691,9.338 0.562,-0.135 5.49,1.918 5.345,1.712 C 112.766,7.095 92.706,1.608 61.82,1.608 30.937,1.608 10.132,7.095 4.785,15.67 4.652,15.883 7.335,14.83 7.897,14.964 z"
       style="fill:url(#linearGradient39316)"
       id="path81" /></g><g
     transform="matrix(-0.8896172,0,0,-0.8896172,36.506104,2.0436295)"
     id="g44294" /><circle
     style="fill:url(#linearGradient24059);fill-opacity:1"
     id="circle3581_2_"
     transform="matrix(-0.965728,0.258766,-0.258766,-0.965728,393.84972,19.358223)"
     r="36"
     cy="92"
     cx="343.99899"
     sodipodi:cx="343.99899"
     sodipodi:cy="92"
     sodipodi:rx="36"
     sodipodi:ry="36" /><path
     style="opacity:0.75;fill:url(#radialGradient3714);fill-opacity:1"
     id="circle3638"
     d="m 37.490034,-16.473513 c -2.96797,0.02905 -5.97016,0.415282 -8.96875,1.21875 C 16.267934,-11.971487 7.2073437,-2.7189977 3.5837837,8.5264873 l 4.21875,0 C 11.271324,-0.90899671 19.111004,-8.5819617 29.552534,-11.379763 c 16.1297,-4.321938 32.69133,4.5113633 38.3125,19.9062503 l 4.25,0 c -4.87952,-15.242985 -19.16001,-25.1513673 -34.625,-25.0000003 z" /><path
     style="opacity:0.9;fill:url(#radialGradient3510);fill-opacity:1;filter:url(#filter3516)"
     id="path3506"
     d="m 37.535294,51.276484 c -2.63819,-0.02582 -5.30334,-0.37956 -7.96875,-1.09375 C 13.427244,45.858227 3.5015337,29.898047 6.3477937,13.745237 c 7.9015503,-1.420803 16.4989703,-2.21875 25.5000003,-2.21875 13.96326,0 26.96439,1.891677 37.875,5.125 0.29523,3.569954 0.0112,7.249041 -0.96875,10.90625 -3.85665,14.39321 -16.97249,23.858187 -31.21875,23.718747 z" /><path
     style="fill:url(#linearGradient3497);fill-opacity:1"
     id="circle3435"
     d="m 37.521284,-12.473513 c -2.63819,0.025822 -5.30334,0.379556 -7.96875,1.09375 -16.1393,4.3245103 -26.0650103,20.2846943 -23.2187503,36.4375 7.9015503,1.420803 16.4989803,2.21875 25.5000003,2.21875 13.96326,0 26.96439,-1.891677 37.875,-5.125 0.29523,-3.569954 0.0112,-7.249041 -0.96875,-10.90625 -3.85665,-14.3932097 -16.97249,-23.858189 -31.21875,-23.71875 z" /><path
     style="fill:none;stroke:url(#radialGradient3325);stroke-width:4;stroke-linejoin:round;stroke-miterlimit:4;stroke-opacity:1;stroke-dasharray:none;filter:url(#filter3327)"
     id="path3317"
     d="m 31.833784,-4.4735127 3,35.9999997 6,0 3,-35.9999997 -12,0 z m 2,39.9999997 0,8 8,0 0,-8 -8,0 z" /><path
     style="fill:url(#linearGradient3533);fill-opacity:1"
     id="path3520"
     d="m 37.271284,-12.473513 c 13.79559,0.498473 26.27321,9.6677703 30.03125,23.34375 0.98939,3.600502 1.26682,7.235397 0.96875,10.75 -11.01573,3.183188 -24.1522,5.031249 -38.25,5.03125 -8.32601,0 -16.30375,-0.657513 -23.7187503,-1.84375 0.01409,0.083867 0.01647,0.166121 0.03125,0.25 7.9015503,1.420803 16.4989803,2.21875 25.5000003,2.21875 13.96326,0 26.96439,-1.891677 37.875,-5.125 0.29523,-3.569954 0.0112,-7.249041 -0.96875,-10.90625 -3.85665,-14.3932097 -16.97249,-23.858189 -31.21875,-23.71875 -0.08356,0.000818 -0.16638,-0.001477 -0.25,0 z" /><path
     style="fill:url(#linearGradient3550);fill-opacity:1"
     id="path3541"
     d="m 37.521284,-12.473513 c -2.63819,0.025822 -5.30334,0.379556 -7.96875,1.09375 -13.7677,3.6890423 -23.0030703,15.8548523 -23.6562503,29.375 0.83098,-12.7217727 10.0387203,-24.0834247 23.6562503,-27.5624997 2.66541,-0.6809723 5.33056,-1.0378783 7.96875,-1.0625003 14.24626,-0.132952 27.3621,8.9013133 31.21875,22.625 0.61247,2.179429 0.96524,4.366021 1.0625,6.53125 -0.07064,-2.411989 -0.41108,-4.850112 -1.0625,-7.28125 -3.85665,-14.3932097 -16.97249,-23.858189 -31.21875,-23.71875 z" /><path
     style="fill:url(#linearGradient3315);fill-opacity:1;stroke:none"
     id="rect2340"
     d="m 31.833784,-4.4735127 3,35.9999997 6,0 3,-35.9999997 -12,0 z m 2,39.9999997 0,8 8,0 0,-8 -8,0 z" /></g>
<linearGradient
   x1="62.292"
   y1="73.028297"
   x2="62.292"
   y2="15.5151"
   id="XMLID_82_"
   gradientUnits="userSpaceOnUse"
   gradientTransform="translate(164.30643,-6.3194783)">
	<stop
   style="stop-color:#ffffff;stop-opacity:1"
   offset="0"
   id="stop84" />
	<stop
   style="stop-color:#def1ff;stop-opacity:1"
   offset="0.0503"
   id="stop86" />
	<stop
   style="stop-color:#c4e5ff;stop-opacity:1"
   offset="0.0998"
   id="stop88" />
	<stop
   style="stop-color:#bae1ff;stop-opacity:1"
   offset="0.1292"
   id="stop90" />
	<stop
   style="stop-color:#4a8cd9;stop-opacity:1"
   offset="1"
   id="stop92" />
</linearGradient>


<linearGradient
   x1="62.2925"
   y1="88.732399"
   x2="62.2925"
   y2="83.084"
   id="XMLID_103_"
   gradientUnits="userSpaceOnUse">
	<stop
   style="stop-color:#204fa1;stop-opacity:1"
   offset="0"
   id="stop279" />
	<stop
   style="stop-color:#4a8cd9;stop-opacity:1"
   offset="1"
   id="stop281" />
</linearGradient>


<linearGradient
   x1="60.1479"
   y1="50.498001"
   x2="60.1479"
   y2="-5.1406002"
   id="XMLID_106_"
   gradientUnits="userSpaceOnUse"
   gradientTransform="matrix(0.8426,0,0,0.7918,196.68293,-57.640448)">
	<stop
   style="stop-color:#79b5e5;stop-opacity:1"
   offset="0"
   id="stop306" />
	<stop
   style="stop-color:#bae1ff;stop-opacity:1"
   offset="0.55620003"
   id="stop308" />
	<stop
   style="stop-color:#204fa1;stop-opacity:1"
   offset="1"
   id="stop310" />
</linearGradient>

<radialGradient
   cx="58.8018"
   cy="-23.2593"
   r="73.982597"
   id="XMLID_107_"
   gradientUnits="userSpaceOnUse"
   gradientTransform="translate(-139.47991,-118.71591)">
	<stop
   style="stop-color:#7d7d77;stop-opacity:1"
   offset="0"
   id="stop315" />
	<stop
   style="stop-color:#eeeeee;stop-opacity:1"
   offset="0.1621"
   id="stop317" />
	<stop
   style="stop-color:#e5e5e5;stop-opacity:1"
   offset="0.2978"
   id="stop319" />
	<stop
   style="stop-color:#555753;stop-opacity:1"
   offset="1"
   id="stop321" />
</radialGradient>

<radialGradient
   cx="60.1455"
   cy="-17.5068"
   r="77.993401"
   id="XMLID_108_"
   gradientUnits="userSpaceOnUse"
   gradientTransform="matrix(0.8426,0,0,0.6899,-235.29854,4.8804217)">
	<stop
   style="stop-color:#ffffff;stop-opacity:1"
   offset="0"
   id="stop326" />
	<stop
   style="stop-color:#eeeeee;stop-opacity:1"
   offset="0.1621"
   id="stop328" />
	<stop
   style="stop-color:#babdb6;stop-opacity:1"
   offset="0.264"
   id="stop330" />
	<stop
   style="stop-color:#555753;stop-opacity:1"
   offset="0.55059999"
   id="stop332" />
	<stop
   style="stop-color:#babdb6;stop-opacity:1"
   offset="0.77530003"
   id="stop334" />
	<stop
   style="stop-color:#eeeeee;stop-opacity:1"
   offset="1"
   id="stop336" />
</radialGradient>










<radialGradient
   cx="58.505402"
   cy="30.394501"
   r="28.741199"
   id="XMLID_127_"
   gradientUnits="userSpaceOnUse">
	<stop
   style="stop-color:#eeeeec;stop-opacity:1"
   offset="0"
   id="stop485" />
	<stop
   style="stop-color:#d3d7cf;stop-opacity:1"
   offset="0.1927"
   id="stop487" />
	<stop
   style="stop-color:#babdb6;stop-opacity:1"
   offset="0.35389999"
   id="stop489" />
	<stop
   style="stop-color:#555753;stop-opacity:1"
   offset="0.99440002"
   id="stop491" />
</radialGradient>

<radialGradient
   cx="60.061501"
   cy="56.609402"
   r="23.858801"
   id="XMLID_128_"
   gradientUnits="userSpaceOnUse"
   gradientTransform="matrix(0.8426,0,0,0.9057,-146.89038,52.358383)">
	<stop
   style="stop-color:#ffffff;stop-opacity:1"
   offset="0"
   id="stop496" />
	<stop
   style="stop-color:#babdb6;stop-opacity:1"
   offset="0.35389999"
   id="stop498" />
	<stop
   style="stop-color:#656565;stop-opacity:1"
   offset="0.99440002"
   id="stop500" />
</radialGradient>

<linearGradient
   x1="43.562"
   y1="10.9736"
   x2="43.562"
   y2="19.6758"
   id="XMLID_129_"
   gradientUnits="userSpaceOnUse">
	<stop
   style="stop-color:#79b5e5;stop-opacity:1"
   offset="0"
   id="stop505" />
	<stop
   style="stop-color:#1a66bf;stop-opacity:1"
   offset="1"
   id="stop507" />
</linearGradient>

<linearGradient
   x1="9.8978996"
   y1="10.9741"
   x2="9.8978996"
   y2="19.6763"
   id="XMLID_130_"
   gradientUnits="userSpaceOnUse"
   gradientTransform="matrix(-1,0,0,1,90.9199,0)">
	<stop
   style="stop-color:#79b5e5;stop-opacity:1"
   offset="0"
   id="stop512" />
	<stop
   style="stop-color:#1a66bf;stop-opacity:1"
   offset="1"
   id="stop514" />
</linearGradient>

<linearGradient
   x1="42.929699"
   y1="16.8965"
   x2="36.762901"
   y2="10.7297"
   id="XMLID_131_"
   gradientUnits="userSpaceOnUse">
	<stop
   style="stop-color:#1a66bf;stop-opacity:1"
   offset="0"
   id="stop519" />
	<stop
   style="stop-color:#204fa1;stop-opacity:1"
   offset="1"
   id="stop521" />
</linearGradient>


<linearGradient
   x1="43.159698"
   y1="11.1836"
   x2="43.159698"
   y2="17.2402"
   id="XMLID_133_"
   gradientUnits="userSpaceOnUse"
   gradientTransform="translate(114.65339,-46.041913)">
	<stop
   style="stop-color:#bae1ff;stop-opacity:1"
   offset="0"
   id="stop528" />
	<stop
   style="stop-color:#4a8cd9;stop-opacity:1"
   offset="1"
   id="stop530" />
</linearGradient>

<linearGradient
   x1="77.542"
   y1="16.7812"
   x2="89.041702"
   y2="12.2814"
   id="XMLID_134_"
   gradientUnits="userSpaceOnUse">
	<stop
   style="stop-color:#1a66bf;stop-opacity:1"
   offset="0"
   id="stop535" />
	<stop
   style="stop-color:#204fa1;stop-opacity:1"
   offset="1"
   id="stop537" />
</linearGradient>


<linearGradient
   x1="81.424797"
   y1="10.3657"
   x2="81.424797"
   y2="17.3666"
   id="XMLID_136_"
   gradientUnits="userSpaceOnUse"
   gradientTransform="matrix(1,0,0,-16.188379,0,200.50244)">
	<stop
   style="stop-color:#bae1ff;stop-opacity:1"
   offset="0"
   id="stop544" />
	<stop
   style="stop-color:#4a8cd9;stop-opacity:1"
   offset="1"
   id="stop546" />
</linearGradient>

<radialGradient
   cx="69.6035"
   cy="47.722698"
   r="16.312901"
   id="XMLID_137_"
   gradientUnits="userSpaceOnUse"
   gradientTransform="matrix(1.057,-0.21,0.2079,1.0465,134.21257,54.6459)">
	<stop
   style="stop-color:#555753;stop-opacity:1"
   offset="0.2753"
   id="stop551" />
	<stop
   style="stop-color:#888a85;stop-opacity:1"
   offset="0.55059999"
   id="stop553" />
	<stop
   style="stop-color:#ffffff;stop-opacity:1"
   offset="0.7978"
   id="stop555" />
	<stop
   style="stop-color:#2e3436;stop-opacity:1"
   offset="1"
   id="stop557" />
</radialGradient>










</svg>