<?xml version="1.0" encoding="utf-8"?>
<!-- Generator: Adobe Illustrator 24.0.0, SVG Export Plug-In . SVG Version: 6.00 Build 0)  -->
<svg version="1.1" id="Ebene_1" xmlns="http://www.w3.org/2000/svg" xmlns:xlink="http://www.w3.org/1999/xlink" x="0px" y="0px"
	 viewBox="0 0 42.5 42.5" style="enable-background:new 0 0 42.5 42.5;" xml:space="preserve">
<style type="text/css">
	.st0{fill:#020203;}
	.st1{fill:#FFFFFF;}
</style>
<g id="open_office_mixed">
	<g>
		<path class="st0" d="M35.8,20.1L30,17.7L19.4,22c-0.2,0.1-0.5,0.2-0.7,0.2c-0.3,0-0.5,0-0.7-0.2L7.3,17.7l-5.8,2.4
			c-0.5,0.2-0.9,0.6-0.9,1.1c0,0.5,0.3,1,0.8,1.2l16.5,6.7c0.2,0.1,0.5,0.2,0.7,0.2c0.3,0,0.5,0,0.7-0.2l16.5-6.7
			c0.5-0.2,0.8-0.7,0.8-1.2C36.7,20.8,36.3,20.3,35.8,20.1z"/>
	</g>
	<g>
		<path class="st0" d="M35.8,29.1L30,26.7L19.4,31c-0.2,0.1-0.5,0.2-0.7,0.2c-0.3,0-0.5,0-0.7-0.2L7.3,26.7l-5.8,2.4
			c-0.5,0.2-0.9,0.6-0.9,1.1c0,0.5,0.3,1,0.8,1.2l16.5,6.7c0.2,0.1,0.5,0.2,0.7,0.2c0.3,0,0.5,0,0.7-0.2l16.5-6.7
			c0.5-0.2,0.8-0.7,0.8-1.2C36.7,29.8,36.3,29.3,35.8,29.1z"/>
	</g>
	<g>
		<path class="st0" d="M18.7,6.4L33,12.3l-14.3,5.8L4.3,12.3L18.7,6.4 M18.7,4.3c-0.2,0-0.4,0-0.6,0.1L1.5,11.2
			c-0.5,0.2-0.9,0.6-0.9,1.1c0,0.5,0.3,1,0.8,1.2l16.5,6.7c0.2,0.1,0.5,0.2,0.7,0.2c0.3,0,0.5,0,0.7-0.2l16.5-6.7
			c0.5-0.2,0.8-0.7,0.8-1.2c0-0.5-0.4-0.9-0.9-1.1L19.3,4.4C19.1,4.3,18.9,4.3,18.7,4.3L18.7,4.3z"/>
	</g>
</g>
<path class="st1" d="M41.7,13.8l-0.4,0.6c-0.1,0.1,0.2,1.8-1.9,3.5c-2.9,2.3-5.6,3.6-8.6,3.6c-3.1,0-6.6-1.3-9.5-3.6
	c-2.2-1.7-3.4-3.4-3.5-3.5l-0.4-0.6l0.4-0.6c0.1-0.1,1.3-1.8,3.5-3.5c2.9-2.3,6-3.8,9.1-3.8c3.1,0,6.2,1.5,9.1,3.8
	c2.2,1.7,1.9,3.4,1.9,3.5L41.7,13.8z M37.7,16.1 M26.5,12.3"/>
<path d="M41.7,13.8l-0.4,0.5c0,0.1-1.1,1.4-3,2.8c-2.5,1.8-5.2,2.8-7.8,2.8c-2.6,0-5.3-1-7.8-2.8c-1.9-1.4-2.9-2.7-3-2.8l-0.4-0.5
	l0.4-0.5c0-0.1,1.1-1.4,3-2.8c2.5-1.8,5.2-2.8,7.8-2.8c2.6,0,5.3,1,7.8,2.8c1.9,1.4,2.9,2.7,3,2.8L41.7,13.8z M30.5,17.7
	c2.2,0,4-1.8,4-4c0-2.2-1.8-4-4-4c-1,0-2,0.4-2.7,1.1l-0.6-0.7c-1.2,0.5-2.3,1.1-3.1,1.7c-1,0.7-1.7,1.4-2.1,1.9
	c0.4,0.5,1.2,1.2,2.1,1.9c0.8,0.6,1.9,1.2,3.1,1.7c-1-0.9-1.6-2.2-1.6-3.6c0-0.4,0-0.8,0.1-1.1l0.9,0.2c-0.1,0.3-0.1,0.7-0.1,1
	C26.6,16,28.4,17.7,30.5,17.7L30.5,17.7z M37,15.7c1-0.7,1.7-1.4,2.1-1.9c-0.4-0.5-1.2-1.2-2.1-1.9c-0.8-0.6-1.9-1.2-3.1-1.7
	c1,0.9,1.6,2.2,1.6,3.6c0,1.4-0.6,2.7-1.6,3.6C35.1,16.9,36.2,16.3,37,15.7L37,15.7z M37,15.7 M29.7,13l-1.6-1.8
	c0.6-0.6,1.4-0.9,2.2-0.9c1.8,0,3.2,1.4,3.2,3.2c0,1.8-1.4,3.2-3.2,3.2c-1.8,0-3.2-1.4-3.2-3.2c0-0.3,0-0.6,0.1-0.9L29.7,13z
	 M27.3,12.6"/>
</svg>
