<?xml version="1.0" encoding="utf-8"?>
<!-- Generator: Adobe Illustrator 24.0.1, SVG Export Plug-In . SVG Version: 6.00 Build 0)  -->
<svg version="1.1" id="Ebene_1" xmlns="http://www.w3.org/2000/svg" xmlns:xlink="http://www.w3.org/1999/xlink" x="0px" y="0px"
	 viewBox="0 0 42.5 42.5" style="enable-background:new 0 0 42.5 42.5;" xml:space="preserve">
<style type="text/css">
	.st0{fill:#020203;}
</style>
<g>
	<path class="st0" d="M19.5,6.4l14.3,5.9l-14.3,5.8L5.1,12.3L19.5,6.4 M19.5,4.2c-0.2,0-0.4,0-0.6,0.1L2.3,11.2
		c-0.5,0.2-0.9,0.6-0.9,1.1c0,0.5,0.3,1,0.8,1.2l16.5,6.7c0.2,0.1,0.5,0.2,0.7,0.2c0.3,0,0.5,0,0.7-0.2l16.5-6.7
		c0.5-0.2,0.8-0.7,0.8-1.2c0-0.5-0.4-0.9-0.9-1.1L20.1,4.4C19.9,4.3,19.7,4.2,19.5,4.2L19.5,4.2z"/>
</g>
<g>
	<path class="st0" d="M26.8,25.8v0.6l-6.7,2.7c-0.2,0.1-0.5,0.2-0.7,0.2c-0.3,0-0.5,0-0.7-0.2L2.2,22.4c-0.5-0.2-0.8-0.7-0.8-1.2
		c0-0.5,0.4-0.9,0.9-1.1l5.8-2.4L18.7,22c0.2,0.1,0.5,0.2,0.7,0.2c0.3,0,0.5,0,0.7-0.2l10.6-4.3l4.9,2h-2.9c-0.3,0-0.5,0.1-0.7,0.3
		s-0.3,0.4-0.3,0.7v3.7l-0.9,0.4h-3c-0.3,0-0.5,0.1-0.7,0.3C26.9,25.3,26.8,25.5,26.8,25.8z M27.8,30.5c-0.3,0-0.5-0.1-0.7-0.3
		c-0.2-0.2-0.3-0.4-0.3-0.7v-1.2L20.2,31c-0.2,0.1-0.5,0.2-0.7,0.2c-0.3,0-0.5,0-0.7-0.2L8.1,26.7l-5.8,2.4
		c-0.5,0.2-0.9,0.6-0.9,1.1c0,0.5,0.3,1,0.8,1.2l16.5,6.7c0.2,0.1,0.5,0.2,0.7,0.2c0.3,0,0.5,0,0.7-0.2l11.6-4.7v-3H27.8z
		 M33.5,22.2v4.3h-4.3c-0.2,0-0.3,0.1-0.4,0.2s-0.2,0.3-0.2,0.4v1.2c0,0.2,0.1,0.3,0.2,0.4s0.3,0.2,0.4,0.2h4.3v4.3
		c0,0.2,0.1,0.3,0.2,0.4s0.3,0.2,0.4,0.2h1.2c0.2,0,0.3-0.1,0.4-0.2s0.2-0.3,0.2-0.4v-4.3h4.3c0.2,0,0.3-0.1,0.4-0.2
		s0.2-0.3,0.2-0.4V27c0-0.2-0.1-0.3-0.2-0.4s-0.3-0.2-0.4-0.2h-4.3v-4.3c0-0.2-0.1-0.3-0.2-0.4s-0.3-0.2-0.4-0.2h-1.2
		c-0.2,0-0.3,0.1-0.4,0.2S33.5,22,33.5,22.2z"/>
</g>
</svg>
