<?xml version="1.0" encoding="utf-8"?>
<!-- Generator: Adobe Illustrator 24.0.0, SVG Export Plug-In . SVG Version: 6.00 Build 0)  -->
<svg version="1.1" id="Ebene_1" xmlns="http://www.w3.org/2000/svg" xmlns:xlink="http://www.w3.org/1999/xlink" x="0px" y="0px"
	 viewBox="0 0 42.5 42.5" style="enable-background:new 0 0 42.5 42.5;" xml:space="preserve">
<style type="text/css">
	.st0{fill:#020203;}
</style>
<g>
	<path class="st0" d="M39,21.7c0,0.5-0.3,1-0.8,1.2l-16.5,6.7c-0.2,0.1-0.5,0.2-0.7,0.2c-0.3,0-0.5,0-0.7-0.2L3.7,22.9
		c-0.5-0.2-0.8-0.7-0.8-1.2c0-0.5,0.4-0.9,0.9-1.1l5.8-2.4l10.6,4.3c0.2,0.1,0.5,0.2,0.7,0.2c0.3,0,0.5,0,0.7-0.2l10.6-4.3l5.8,2.4
		C38.6,20.8,39,21.2,39,21.7z M38.1,29.6l-5.8-2.4l-10.6,4.3c-0.2,0.1-0.5,0.2-0.7,0.2c-0.3,0-0.5,0-0.7-0.2L9.6,27.2l-5.8,2.4
		c-0.5,0.2-0.9,0.6-0.9,1.1c0,0.5,0.3,1,0.8,1.2l16.5,6.7c0.2,0.1,0.5,0.2,0.7,0.2c0.3,0,0.5,0,0.7-0.2l16.5-6.7
		c0.5-0.2,0.8-0.7,0.8-1.2C39,30.3,38.6,29.8,38.1,29.6z"/>
</g>
<g>
	<path class="st0" d="M20.9,6.9l14.3,5.9l-14.3,5.8L6.6,12.8L20.9,6.9 M20.9,4.7c-0.2,0-0.4,0-0.6,0.1L3.8,11.6
		c-0.5,0.2-0.9,0.6-0.9,1.1c0,0.5,0.3,1,0.8,1.2l16.5,6.7c0.2,0.1,0.5,0.2,0.7,0.2c0.3,0,0.5,0,0.7-0.2l16.5-6.7
		c0.5-0.2,0.8-0.7,0.8-1.2c0-0.5-0.4-0.9-0.9-1.1L21.6,4.8C21.4,4.8,21.1,4.7,20.9,4.7L20.9,4.7z"/>
</g>
</svg>
