<?xml version="1.0" encoding="utf-8"?>
<!-- Generator: Adobe Illustrator 24.0.1, SVG Export Plug-In . SVG Version: 6.00 Build 0)  -->
<svg version="1.1" id="Ebene_1" xmlns="http://www.w3.org/2000/svg" xmlns:xlink="http://www.w3.org/1999/xlink" x="0px" y="0px"
	 viewBox="0 0 42.5 42.5" style="enable-background:new 0 0 42.5 42.5;" xml:space="preserve">
<style type="text/css">
	.st0{fill:#010202;}
</style>
<path class="st0" d="M32,23.7c0,0.1,0,0.1,0,0.2l-11.6,4.7c-0.2,0.1-0.5,0.2-0.7,0.2c-0.3,0-0.5,0-0.7-0.2L2.5,21.9
	c-0.5-0.2-0.8-0.7-0.8-1.2c0-0.5,0.4-0.9,0.9-1.1l5.8-2.4L19,21.5c0.2,0.1,0.5,0.2,0.7,0.2c0.3,0,0.5,0,0.7-0.2l6.7-2.7
	c0,0.3,0.1,0.5,0.3,0.7c0.2,0.2,0.4,0.3,0.7,0.3H32V23.7z M36.9,28.6L31,26.2l-10.6,4.3c-0.2,0.1-0.5,0.2-0.7,0.2
	c-0.3,0-0.5,0-0.7-0.2L8.4,26.2l-5.8,2.4c-0.5,0.2-0.9,0.6-0.9,1.1c0,0.5,0.3,1,0.8,1.2L19,37.7c0.2,0.1,0.5,0.2,0.7,0.2
	c0.3,0,0.5,0,0.7-0.2L37,30.9c0.5-0.2,0.8-0.7,0.8-1.2C37.8,29.3,37.4,28.8,36.9,28.6z M27.4,14.4c0.2-0.2,0.4-0.3,0.7-0.3H32v-4.1
	c0-0.3,0.1-0.5,0.3-0.7c0.2-0.2,0.4-0.3,0.7-0.3L20.3,3.9c-0.4-0.1-0.9-0.1-1.3,0L2.6,10.6c-0.5,0.2-0.9,0.6-0.9,1.1
	c0,0.5,0.3,1,0.8,1.2L19,19.7c0.2,0.1,0.5,0.2,0.7,0.2c0.3,0,0.5,0,0.7-0.2l6.7-2.7v-1.9C27.1,14.8,27.2,14.6,27.4,14.4z M33.7,11.5
	v4.3h-4.3c-0.2,0-0.3,0.1-0.4,0.2s-0.2,0.3-0.2,0.4v1.2c0,0.2,0.1,0.3,0.2,0.4s0.3,0.2,0.4,0.2h4.3v4.3c0,0.2,0.1,0.3,0.2,0.4
	s0.3,0.2,0.4,0.2h1.2c0.2,0,0.3-0.1,0.4-0.2s0.2-0.3,0.2-0.4v-4.3h4.3c0.2,0,0.3-0.1,0.4-0.2s0.2-0.3,0.2-0.4v-1.2
	c0-0.2-0.1-0.3-0.2-0.4s-0.3-0.2-0.4-0.2h-4.3v-4.3c0-0.2-0.1-0.3-0.2-0.4s-0.3-0.2-0.4-0.2h-1.2c-0.2,0-0.3,0.1-0.4,0.2
	S33.7,11.3,33.7,11.5z"/>
</svg>
