<?xml version="1.0" encoding="utf-8"?>
<!-- Generator: Adobe Illustrator 24.0.0, SVG Export Plug-In . SVG Version: 6.00 Build 0)  -->
<svg version="1.1" id="Ebene_1" xmlns="http://www.w3.org/2000/svg" xmlns:xlink="http://www.w3.org/1999/xlink" x="0px" y="0px"
	 viewBox="0 0 42.5 42.5" style="enable-background:new 0 0 42.5 42.5;" xml:space="preserve">
<style type="text/css">
	.st0{fill:#020203;}
</style>
<g>
	<path class="st0" d="M18.8,6.9l14.3,5.9l-14.3,5.8L4.4,12.8L18.8,6.9 M18.8,4.7c-0.2,0-0.4,0-0.6,0.1L1.6,11.6
		c-0.5,0.2-0.9,0.6-0.9,1.1c0,0.5,0.3,1,0.8,1.2L18,20.7c0.2,0.1,0.5,0.2,0.7,0.2c0.3,0,0.5,0,0.7-0.2L36,13.9
		c0.5-0.2,0.8-0.7,0.8-1.2c0-0.5-0.4-0.9-0.9-1.1L19.4,4.8C19.2,4.8,19,4.7,18.8,4.7L18.8,4.7z"/>
</g>
<g>
	<path class="st0" d="M30.6,18.4l-0.5-0.2l-10.6,4.3c-0.2,0.1-0.5,0.2-0.7,0.2c-0.3,0-0.5,0-0.7-0.2L7.4,18.2l-5.8,2.4
		c-0.5,0.2-0.9,0.6-0.9,1.1c0,0.5,0.3,1,0.8,1.2L18,29.6c0.2,0.1,0.5,0.2,0.7,0.2c0.3,0,0.5,0,0.7-0.2l1.8-0.7l0.1-2.3L30.6,18.4z"
		/>
</g>
<g>
	<path class="st0" d="M35.9,29.6L33,28.4l-5.8,5.2l-6.1-0.5l0.1-2.3l-1.7,0.7c-0.2,0.1-0.5,0.2-0.7,0.2c-0.3,0-0.5,0-0.7-0.2
		L7.4,27.2l-5.8,2.4c-0.5,0.2-0.9,0.6-0.9,1.1c0,0.5,0.3,1,0.8,1.2L18,38.6c0.2,0.1,0.5,0.2,0.7,0.2c0.3,0,0.5,0,0.7-0.2L36,31.9
		c0.5-0.2,0.8-0.7,0.8-1.2C36.8,30.3,36.5,29.8,35.9,29.6z"/>
</g>
<path d="M26.4,30.7l2-1.8L26,26.3l-2,1.8l0,0.9l1.6,0.1l-0.1,1.6L26.4,30.7z M34.1,19.4c-0.2-0.2-0.3-0.2-0.5,0l-6,5.4
	c-0.2,0.2-0.2,0.4,0,0.5c0.2,0.2,0.3,0.2,0.5,0l6-5.4C34.2,19.8,34.3,19.6,34.1,19.4z M34,17.1l4.4,4.9L26.9,32.3L22.3,32l0.2-4.7
	L34,17.1z M41,19.6L39.5,21L35,16.1l1.6-1.4c0.3-0.3,0.7-0.4,1.1-0.4c0.4,0,0.8,0.2,1.1,0.5l2.3,2.6c0.3,0.3,0.4,0.7,0.4,1.1
	C41.5,18.9,41.3,19.3,41,19.6z"/>
</svg>
