<?xml version="1.0" encoding="utf-8"?>
<!-- Generator: Adobe Illustrator 24.3.0, SVG Export Plug-In . SVG Version: 6.00 Build 0)  -->
<svg version="1.1" id="Ebene_1" xmlns="http://www.w3.org/2000/svg" xmlns:xlink="http://www.w3.org/1999/xlink" x="0px" y="0px"
	 viewBox="0 0 64 64" style="enable-background:new 0 0 64 64;" xml:space="preserve">
<style type="text/css">
	.st0{fill:#0082CA;}
	.st1{fill:#FFFFFF;}
</style>
<path class="st0" d="M59.7,32c0,15.3-12.4,27.7-27.7,27.7C16.7,59.7,4.3,47.3,4.3,32C4.3,16.7,16.7,4.3,32,4.3
	C47.3,4.3,59.7,16.7,59.7,32"/>
<path class="st0" d="M61.9,32c0,16.5-13.4,29.9-29.9,29.9C15.5,61.9,2.1,48.5,2.1,32C2.1,15.5,15.5,2.1,32,2.1
	C48.5,2.1,61.9,15.5,61.9,32z M63,32C63,14.9,49.1,1,32,1C14.9,1,1,14.9,1,32c0,17.1,13.9,31,31,31C49.1,63,63,49.1,63,32z"/>
<path class="st1" d="M31.4,21.6l21.5,0v7.6l-21.5,0v11.2c0,3,0.7,4.3,3.8,4.3c0.9,0,1.9-0.1,2.8-0.2v9.3c-2.5,0-5.3,0.4-7.9,0.4
	c-5.2,0-11-0.8-11-9.6V29.2h-5.5v-7.6h5.5v-9.8h12.3V21.6z"/>
</svg>
