<?xml version="1.0" encoding="utf-8"?>
<svg version="1.1" id="Ebene_1" xmlns="http://www.w3.org/2000/svg" xmlns:xlink="http://www.w3.org/1999/xlink" x="0px" y="0px"
	 viewBox="0 0 16 16" style="enable-background:new 0 0 16 16;" xml:space="preserve">
<path d="M15.7,8c0,4.2-3.4,7.7-7.7,7.7c-4.2,0-7.7-3.4-7.7-7.7c0-4.2,3.4-7.7,7.7-7.7C12.2,0.3,15.7,3.8,15.7,8 M16,8
	c0-4.4-3.6-8-8-8C3.6,0,0,3.6,0,8c0,4.4,3.6,8,8,8C12.4,16,16,12.4,16,8"/>
<path d="M12.3,6.4c-0.9,0-1.6,0.9-2.3,2.6c-0.7,1.8-1,3.5-1,5.2c0,0.3,0,0.5,0,0.7c1.4-0.2,2.7-0.8,3.7-1.7c0.5-1.6,0.8-3.1,0.8-4.6
	c0-0.8,0-1.3-0.2-1.7C13,6.6,12.7,6.4,12.3,6.4z"/>
<path d="M5.3,7.2c2.1-1.5,2.4-2.1,2.3-3.4c0-0.6-0.3-1.1-0.6-1.4C6.6,2,6.1,1.9,5.5,1.9C4.9,1.9,4.3,2,3.9,2.4
	C3.7,2.6,3.4,3.1,3.2,4l0,0.2h-1C1.4,5.3,1,6.6,1,8c0,0.7,0.1,1.5,0.3,2.1C1.7,9.6,2.3,9.2,3,8.8C3.8,8.2,5.3,7.2,5.3,7.2z"/>
<path d="M8.1,1C8.4,1.1,8.7,1.2,9,1.4c0.7,0.5,1.2,1.1,1.3,2.2c0.1,0.6,0,1-0.2,1.5C9.9,5.8,9.4,6.4,7.3,7.4c0,0-1.8,0.8-2.5,1.3
	C4,9.2,3.3,9.8,2.4,11.2l3.8,0l-0.5,2.5H3.9c0.8,0.6,1.8,1,2.9,1.2c-0.1-0.4-0.3-0.8-0.3-1.2h1.6h0.4L9,11.2H6.7
	C6.9,10,7.4,8.9,8.2,7.9c1.1-1.5,2.7-2.2,4.2-2.2c1.1,0,1.9,0.3,2.5,1C14.2,3.5,11.5,1.1,8.1,1z"/>
</svg>
