<?xml version="1.0" encoding="utf-8"?>
<svg version="1.1" id="Ebene_1" x="0px" y="0px" viewBox="0 0 64 64" style="enable-background:new 0 0 64 64;" xmlns="http://www.w3.org/2000/svg">
  <style type="text/css">
	.st0{fill:#0082CA;}
	.st1{fill:#FFFFFF;}
</style>
  <path class="st0" d="M 59.7 32 C 59.7 47.3 47.3 59.7 32 59.7 C 16.7 59.7 4.3 47.3 4.3 32 C 4.3 16.7 16.7 4.3 32 4.3 C 47.3 4.3 59.7 16.7 59.7 32 Z M 31.4 11.8 L 19.1 11.8 L 19.1 21.6 L 13.6 21.6 L 13.6 29.2 L 19.1 29.2 L 19.1 44.6 C 19.1 53.4 24.9 54.2 30.1 54.2 C 32.7 54.2 35.5 53.8 38 53.8 L 38 44.5 C 37.1 44.6 36.1 44.7 35.2 44.7 C 32.1 44.7 31.4 43.4 31.4 40.4 L 31.4 29.2 L 52.9 29.2 L 52.9 21.6 L 31.4 21.6 Z" style="fill: rgb(0, 0, 0);"/>
  <path class="st0" d="M61.9,32c0,16.5-13.4,29.9-29.9,29.9C15.5,61.9,2.1,48.5,2.1,32C2.1,15.5,15.5,2.1,32,2.1 C48.5,2.1,61.9,15.5,61.9,32z M63,32C63,14.9,49.1,1,32,1C14.9,1,1,14.9,1,32c0,17.1,13.9,31,31,31C49.1,63,63,49.1,63,32z" style="fill: rgb(0, 0, 0);"/>
</svg>