<?xml version="1.0" encoding="utf-8"?>
<!-- Generator: Adobe Illustrator 24.3.0, SVG Export Plug-In . SVG Version: 6.00 Build 0)  -->
<svg version="1.1" id="Ebene_1" xmlns="http://www.w3.org/2000/svg" xmlns:xlink="http://www.w3.org/1999/xlink" x="0px" y="0px"
	 viewBox="0 0 42.5 42.5" style="enable-background:new 0 0 42.5 42.5;" xml:space="preserve">
<path d="M39.2,23.3c0-0.5-0.4-0.7-1.2-0.7H14.3c-0.6,0-1.2,0.1-1.9,0.4c-0.7,0.3-1.2,0.6-1.6,1.1l-6.4,7.3c-0.3,0.3-0.4,0.6-0.4,0.8
	c0,0.5,0.4,0.7,1.2,0.7H29c0.6,0,1.2-0.1,1.9-0.4c0.7-0.3,1.2-0.7,1.6-1.1l6.4-7.3C39.1,23.8,39.2,23.5,39.2,23.3z M14.3,20h16.8
	v-3.2c0-0.5-0.2-1-0.6-1.4c-0.4-0.4-0.9-0.6-1.5-0.6H13.4c-0.6,0-1.1-0.2-1.5-0.6s-0.6-0.8-0.6-1.4v-1.3c0-0.5-0.2-1-0.6-1.4
	c-0.4-0.4-0.9-0.6-1.5-0.6H4.8c-0.6,0-1.1,0.2-1.5,0.6c-0.4,0.4-0.6,0.8-0.6,1.4v17.9l6-7.1c0.6-0.7,1.5-1.3,2.5-1.8
	S13.3,20,14.3,20z M42,23.3c0,0.8-0.3,1.6-1,2.4L34.6,33c-0.6,0.7-1.5,1.3-2.5,1.8S30,35.4,29,35.4H5.2c-1.3,0-2.5-0.4-3.4-1.3
	s-1.4-1.9-1.4-3.2V11.6c0-1.2,0.5-2.3,1.4-3.2s2.1-1.3,3.4-1.3h3.6c1.3,0,2.5,0.4,3.4,1.3s1.4,1.9,1.4,3.2v0.6H29
	c1.3,0,2.5,0.4,3.4,1.3c1,0.9,1.4,1.9,1.4,3.2V20h4.2c0.8,0,1.5,0.2,2.2,0.5c0.7,0.3,1.1,0.8,1.5,1.4C41.9,22.3,42,22.8,42,23.3z
	 M27.5,26.9l2-2.1c0.2-0.2,0.1-0.3-0.1-0.3h-2.7c0.6-0.7,0.4-1.2-0.4-1.2c-0.9,0-2.1,0.5-2.7,1.2h-2.7c-0.2,0-0.5,0.1-0.7,0.3
	l-2.5,2.6c-0.2,0.2-0.1,0.3,0.1,0.3c0.1,0,0.2,0,0.3-0.1c0.5-0.2,1-0.2,1.1,0s-0.3,0.6-0.9,0.8c-0.5,0.2-1,0.2-1.1,0
	c-0.1-0.1-0.3-0.1-0.6,0c-0.1,0.1-0.2,0.1-0.3,0.2l-2.5,2.6c-0.2,0.2-0.1,0.3,0.1,0.3h3.4c0.2,0,0.5-0.1,0.7-0.3
	c0.1-0.1,0.1-0.1,0.1-0.2c-0.1-0.2,0.3-0.6,0.9-0.8s1-0.2,1.1,0c0.1,0.2-0.3,0.6-0.8,0.8c-0.3,0.1-0.4,0.3-0.4,0.4
	c0,0,0.1,0.1,0.2,0.1h3.4c0.2,0,0.5-0.1,0.7-0.3l2-2.1c0.9,0,2.1-0.5,2.7-1.2C28.6,27.4,28.4,26.9,27.5,26.9z"/>
</svg>
