<?xml version="1.0" encoding="utf-8"?>
<!-- Generator: Adobe Illustrator 24.3.0, SVG Export Plug-In . SVG Version: 6.00 Build 0)  -->
<svg version="1.1" id="Ebene_1" xmlns="http://www.w3.org/2000/svg" xmlns:xlink="http://www.w3.org/1999/xlink" x="0px" y="0px"
	 viewBox="0 0 42.5 42.5" style="enable-background:new 0 0 42.5 42.5;" xml:space="preserve">
<path d="M16.9,11.7l-3.2,2.8C13,15.1,12,15,11.5,14.4l0,0c-0.6-0.7-0.5-1.7,0.2-2.2l3.2-2.8c0.7-0.6,1.7-0.5,2.2,0.2l0,0
	C17.6,10.2,17.6,11.2,16.9,11.7z M28.5,5.6c-0.4-0.4-0.8-0.7-1.4-0.9c-0.6-0.3-1.2-0.4-1.7-0.4h-17c-0.5,0-0.9,0.2-1.3,0.5
	C6.7,5.1,6.6,5.6,6.6,6.1v30.4c0,0.5,0.2,0.9,0.5,1.3c0.4,0.4,0.8,0.5,1.3,0.5h25.5c0.5,0,0.9-0.2,1.3-0.5c0.4-0.4,0.5-0.8,0.5-1.3
	V14.6c0-0.5-0.1-1.1-0.4-1.7c-0.3-0.6-0.6-1.1-0.9-1.4L28.5,5.6z M26.8,7.3l5.9,5.9c0.2,0.2,0.3,0.4,0.4,0.8H26V6.8
	C26.4,7,26.6,7.1,26.8,7.3z M9,35.9V6.7h14.6v7.9c0,0.5,0.2,0.9,0.5,1.3c0.4,0.4,0.8,0.5,1.3,0.5h7.9v19.4H9z"/>
</svg>
