<?xml version="1.0" encoding="utf-8"?>
<!-- Generator: Adobe Illustrator 24.3.0, SVG Export Plug-In . SVG Version: 6.00 Build 0)  -->
<svg version="1.1" id="Ebene_1" xmlns="http://www.w3.org/2000/svg" xmlns:xlink="http://www.w3.org/1999/xlink" x="0px" y="0px"
	 viewBox="0 0 42.5 42.5" style="enable-background:new 0 0 42.5 42.5;" xml:space="preserve">
<style type="text/css">
	.st0{stroke:#000000;stroke-width:0.5;stroke-miterlimit:10;}
</style>
<path d="M28.5,5.6c-0.4-0.4-0.8-0.7-1.4-0.9c-0.6-0.3-1.2-0.4-1.7-0.4h-17c-0.5,0-0.9,0.2-1.3,0.5C6.7,5.1,6.6,5.6,6.6,6.1v30.4
	c0,0.5,0.2,0.9,0.5,1.3c0.4,0.4,0.8,0.5,1.3,0.5h25.5c0.5,0,0.9-0.2,1.3-0.5c0.4-0.4,0.5-0.8,0.5-1.3V14.6c0-0.5-0.1-1.1-0.4-1.7
	c-0.3-0.6-0.6-1.1-0.9-1.4L28.5,5.6z M26.8,7.3l5.9,5.9c0.2,0.2,0.3,0.4,0.4,0.8H26V6.8C26.4,7,26.6,7.1,26.8,7.3z M9,35.9V6.7h14.6
	v7.9c0,0.5,0.2,0.9,0.5,1.3c0.4,0.4,0.8,0.5,1.3,0.5h7.9v19.4L9,35.9L9,35.9z"/>
<path class="st0" d="M23,18.9c0.5,0,1,0,1.3,0.2c0.3,0.1,0.6,0.3,0.8,0.5c0.2,0.2,0.3,0.5,0.4,0.8c0.1,0.3,0.1,0.6,0.1,0.9
	c0,0.3,0,0.5-0.1,0.8c0,0.2-0.1,0.4-0.1,0.5c-0.3,1-0.8,1.8-1.4,2.3c-0.6,0.6-1.2,1-1.9,1.2c-0.7,0.3-1.3,0.4-1.9,0.5
	c-0.6,0.1-1.1,0.1-1.4,0.1c-0.1,0.7-0.1,1.3-0.1,1.9c0,0.6,0.1,1.1,0.3,1.5c0.2,0.4,0.4,0.8,0.7,1s0.6,0.4,1.1,0.3
	c0.4,0,0.9-0.3,1.5-0.7c0.5-0.5,1.1-1,1.7-1.7c0.6-0.7,1-1.3,1.3-1.6c0-0.1,0.2-0.1,0.3-0.2c0.1,0,0.2,0,0.3,0s0.2,0.1,0.2,0.1
	c0.1,0.1,0.1,0.5,0,0.6c0,0.1-0.6,0.9-1.2,1.6c-0.6,0.7-1.1,1.3-1.6,1.8c-0.5,0.5-1.1,1-1.6,1.3c-0.5,0.3-1,0.5-1.5,0.5
	c-0.8,0-1.5-0.2-2-0.6c-0.5-0.4-0.9-0.9-1.2-1.6c-0.3-0.7-0.4-1.4-0.4-2.2s0.1-1.7,0.3-2.6c0.2-0.9,0.5-1.7,0.9-2.6s0.9-1.6,1.4-2.3
	c0.6-0.7,1.2-1.2,1.8-1.6C21.5,19.2,22.2,18.9,23,18.9z M22.9,19.7c-0.5,0.1-1,0.3-1.4,0.7c-0.4,0.4-0.9,0.9-1.2,1.5
	s-0.7,1.2-0.9,1.9c-0.3,0.7-0.4,1.4-0.6,2.2c0.2,0,0.5,0,1-0.1s0.9-0.2,1.3-0.4c0.5-0.2,0.9-0.6,1.4-1s0.8-1.1,1.1-1.9
	c0.2-0.7,0.3-1.2,0.3-1.6c0-0.4,0-0.7-0.1-0.9c-0.1-0.2-0.2-0.3-0.4-0.4S23,19.7,22.9,19.7z"/>
</svg>
