<?xml version="1.0" encoding="utf-8"?>
<!-- Generator: Adobe Illustrator 24.3.0, SVG Export Plug-In . SVG Version: 6.00 Build 0)  -->
<svg version="1.1" id="Ebene_1" xmlns="http://www.w3.org/2000/svg" xmlns:xlink="http://www.w3.org/1999/xlink" x="0px" y="0px"
	 viewBox="0 0 42.5 42.5" style="enable-background:new 0 0 42.5 42.5;" xml:space="preserve">
<style type="text/css">
	.st0{stroke:#000000;stroke-width:0.5;stroke-miterlimit:10;}
</style>
<path d="M41.1,11.1c-0.9-0.9-2-1.4-3.3-1.4H19V9c0-1.3-0.5-2.4-1.4-3.3c-0.9-0.9-2-1.4-3.3-1.4H9.7c-1.3,0-2.4,0.5-3.3,1.4
	C5.7,6.5,5.3,7.4,5.2,8.5H4.6c-1.3,0-2.4,0.5-3.3,1.4c-0.9,0.9-1.4,2-1.4,3.3v20.3c0,1.3,0.5,2.4,1.4,3.3c0.9,0.9,2,1.4,3.3,1.4
	h28.1c1.3,0,2.4-0.5,3.3-1.4c0.8-0.8,1.2-1.7,1.3-2.8h0.5c1.3,0,2.4-0.5,3.3-1.4c0.9-0.9,1.4-2,1.4-3.3V14.4
	C42.5,13.1,42,12,41.1,11.1z M34.7,33.4c0,0.6-0.2,1-0.6,1.4c-0.4,0.4-0.9,0.6-1.4,0.6H4.6c-0.6,0-1-0.2-1.4-0.6
	c-0.4-0.4-0.6-0.9-0.6-1.4V13.2c0-0.6,0.2-1,0.6-1.4c0.4-0.4,0.9-0.6,1.4-0.6h4.6c0.6,0,1,0.2,1.4,0.6c0.4,0.4,0.6,0.9,0.6,1.4v1.4
	c0,0.6,0.2,1,0.6,1.4c0.4,0.4,0.9,0.6,1.4,0.6h19.5c0.6,0,1,0.2,1.4,0.6s0.6,0.9,0.6,1.4V33.4z M39.7,29.2c0,0.6-0.2,1-0.6,1.4
	s-0.9,0.6-1.4,0.6h-0.3V18.6c0-1.3-0.5-2.4-1.4-3.3c-0.9-0.9-2-1.4-3.3-1.4H13.9v-0.7c0-1.3-0.5-2.4-1.4-3.3c-0.9-0.9-2-1.4-3.3-1.4
	H7.7c0.1-0.4,0.3-0.7,0.5-0.9C8.6,7.1,9,6.9,9.6,6.9h4.6c0.6,0,1,0.2,1.4,0.6s0.6,0.9,0.6,1.4v1.4c0,0.6,0.2,1,0.6,1.4
	c0.4,0.4,0.9,0.6,1.4,0.6h19.5c0.6,0,1,0.2,1.4,0.6c0.4,0.4,0.6,0.9,0.6,1.4V29.2z"/>
<path class="st0" d="M21,18.8c0.5,0,1,0,1.3,0.2c0.3,0.1,0.6,0.3,0.8,0.5c0.2,0.2,0.3,0.5,0.4,0.8c0.1,0.3,0.1,0.6,0.1,0.9
	c0,0.3,0,0.5-0.1,0.8c0,0.2-0.1,0.4-0.1,0.5c-0.3,1-0.8,1.8-1.4,2.3c-0.6,0.6-1.2,1-1.9,1.2c-0.7,0.3-1.3,0.4-1.9,0.5
	c-0.6,0.1-1.1,0.1-1.4,0.1c-0.1,0.7-0.1,1.3-0.1,1.9c0,0.6,0.1,1.1,0.3,1.5c0.2,0.4,0.4,0.8,0.7,1s0.6,0.4,1.1,0.3
	c0.4,0,0.9-0.3,1.5-0.7c0.5-0.5,1.1-1,1.7-1.7c0.6-0.7,1-1.3,1.3-1.6c0-0.1,0.2-0.1,0.3-0.2c0.1,0,0.2,0,0.3,0s0.2,0.1,0.2,0.1
	c0.1,0.1,0.1,0.5,0,0.6c0,0.1-0.6,0.9-1.2,1.6c-0.6,0.7-1.1,1.3-1.6,1.8c-0.5,0.5-1.1,1-1.6,1.3c-0.5,0.3-1,0.5-1.5,0.5
	c-0.8,0-1.5-0.2-2-0.6c-0.5-0.4-0.9-0.9-1.2-1.6c-0.3-0.7-0.4-1.4-0.4-2.2s0.1-1.7,0.3-2.6c0.2-0.9,0.5-1.7,0.9-2.6
	c0.4-0.8,0.9-1.6,1.4-2.3c0.6-0.7,1.2-1.2,1.8-1.6C19.5,19.1,20.3,18.9,21,18.8z M21,19.7c-0.5,0.1-1,0.3-1.4,0.7
	c-0.4,0.4-0.9,0.9-1.2,1.5s-0.7,1.2-0.9,1.9c-0.3,0.7-0.4,1.4-0.6,2.2c0.2,0,0.5,0,1-0.1s0.9-0.2,1.3-0.4c0.5-0.2,0.9-0.6,1.4-1
	s0.8-1.1,1.1-1.9c0.2-0.7,0.3-1.2,0.3-1.6c0-0.4,0-0.7-0.1-0.9c-0.1-0.2-0.2-0.3-0.4-0.4S21.1,19.7,21,19.7z"/>
</svg>
