<?xml version="1.0" encoding="utf-8"?>
<!-- Generator: Adobe Illustrator 24.3.0, SVG Export Plug-In . SVG Version: 6.00 Build 0)  -->
<svg version="1.1" id="Ebene_1" xmlns="http://www.w3.org/2000/svg" xmlns:xlink="http://www.w3.org/1999/xlink" x="0px" y="0px"
	 viewBox="0 0 42.5 42.5" style="enable-background:new 0 0 42.5 42.5;" xml:space="preserve">
<path d="M36.6,13.5c-0.9-0.9-1.9-1.3-3.1-1.3l-15.9,0v-0.6c0-1.2-0.4-2.3-1.3-3.2S14.4,7,13.2,7H8.8C7.6,7,6.6,7.5,5.7,8.4
	s-1.3,1.9-1.3,3.2v19.3c0,1.2,0.4,2.3,1.3,3.2s1.9,1.3,3.1,1.3l24.7,0c1.2,0,2.2-0.4,3.1-1.3c0.9-0.9,1.3-1.9,1.3-3.2V16.7
	C37.9,15.4,37.5,14.4,36.6,13.5z M35.4,30.8c0,0.5-0.2,1-0.6,1.4c-0.4,0.4-0.8,0.6-1.3,0.6l-3.4,0c0,1.2-1,2.2-2.2,2.2H13.8
	c-1.2,0-2.2-1-2.2-2.2l-2.8,0c-0.5,0-1-0.2-1.3-0.6c-0.4-0.4-0.6-0.8-0.6-1.4V11.5c0-0.5,0.2-1,0.6-1.4c0.4-0.4,0.8-0.6,1.3-0.6h4.4
	c0.5,0,1,0.2,1.3,0.6c0.4,0.4,0.6,0.8,0.6,1.4v1.3c0,0.5,0.2,1,0.6,1.4c0.4,0.4,0.8,0.6,1.3,0.6l16.5,0c0.5,0,1,0.2,1.3,0.6
	s0.6,0.8,0.6,1.4V30.8z M15.3,26.5c-0.4-0.5-0.3-1.3,0.2-1.7l2.5-2c0.5-0.4,1.3-0.3,1.7,0.2l0.2,0.2c0.4,0.5,0.3,1.3-0.2,1.7l-2.5,2
	c-0.5,0.4-1.3,0.3-1.7-0.2L15.3,26.5z"/>
<path d="M30.1,21c0-1.2-1-2.3-2.3-2.3H13.8c-1.2,0-2.3,1-2.3,2.3v11.6c0,0,0,0,0,0.1c0,1.2,1,2.2,2.2,2.2h14.1c1.2,0,2.2-1,2.2-2.2
	c0,0,0,0,0,0V21z M13.9,32.8V21.2h13.9l0,11.6H13.9z"/>
</svg>
