<?xml version="1.0" encoding="utf-8"?>
<!-- Generator: Adobe Illustrator 24.3.0, SVG Export Plug-In . SVG Version: 6.00 Build 0)  -->
<svg version="1.1" id="Ebene_1" xmlns="http://www.w3.org/2000/svg" xmlns:xlink="http://www.w3.org/1999/xlink" x="0px" y="0px"
	 viewBox="0 0 42.5 42.5" style="enable-background:new 0 0 42.5 42.5;" xml:space="preserve">
<path id="geschlossen" d="M37.9,16.7v14.1c0,1.2-0.4,2.3-1.3,3.2c-0.9,0.9-1.9,1.3-3.1,1.3l-24.7,0c-1.2,0-2.2-0.4-3.1-1.3
	s-1.3-1.9-1.3-3.2V11.6c0-1.2,0.4-2.3,1.3-3.2s1.9-1.3,3.1-1.3h4.4c1.2,0,2.2,0.4,3.1,1.3c0.9,0.9,1.3,1.9,1.3,3.2v0.6l15.9,0
	c1.2,0,2.2,0.4,3.1,1.3C37.5,14.4,37.9,15.5,37.9,16.7z M35.4,30.8V16.6c0-0.5-0.2-1-0.6-1.4s-0.8-0.6-1.3-0.6l-16.5,0
	c-0.5,0-1-0.2-1.3-0.6s-0.6-0.8-0.6-1.4v-1.3c0-0.5-0.2-1-0.6-1.4c-0.4-0.4-0.8-0.6-1.3-0.6H8.8c-0.5,0-1,0.2-1.3,0.6
	c-0.4,0.4-0.6,0.8-0.6,1.4v19.3c0,0.5,0.2,1,0.6,1.4c0.4,0.4,0.8,0.6,1.3,0.6l24.7,0c0.5,0,1-0.2,1.3-0.6
	C35.2,31.8,35.4,31.3,35.4,30.8z M21.7,27.9l4.3,1.3V18l-4.3-1.3V27.9z M16.2,30.6l4.3-2.6V16.9l-4.3,2.6V30.6z M27.2,29.4h4.3V18.1
	h-4.3V29.4z M15,19.6L10.7,18v11.2l4.3,1.6V19.6z"/>
</svg>
