<?xml version="1.0" encoding="utf-8"?>
<!-- Generator: Adobe Illustrator 24.3.0, SVG Export Plug-In . SVG Version: 6.00 Build 0)  -->
<svg version="1.1" id="Ebene_1" xmlns="http://www.w3.org/2000/svg" xmlns:xlink="http://www.w3.org/1999/xlink" x="0px" y="0px"
	 viewBox="0 0 42.5 42.5" style="enable-background:new 0 0 42.5 42.5;" xml:space="preserve">
<style type="text/css">
	.st0{stroke:#000000;stroke-width:0.3571;stroke-miterlimit:10;}
</style>
<path d="M41.8,21.8c-0.3-0.6-0.8-1.1-1.5-1.4c-0.7-0.3-1.4-0.5-2.2-0.5H34v-3.2c0-1.2-0.5-2.3-1.4-3.2c-1-0.9-2.1-1.3-3.4-1.3H13.8
	v-0.6c0-1.2-0.5-2.3-1.4-3.2C11.4,7.5,10.3,7,8.9,7H5.3C4,7,2.8,7.5,1.9,8.4c-1,0.9-1.4,1.9-1.4,3.2v19.3c0,1.2,0.5,2.3,1.4,3.2
	c1,0.9,2.1,1.3,3.4,1.3h23.8c1,0,2-0.2,3.1-0.7c1.1-0.5,1.9-1.1,2.5-1.8l6.4-7.3c0.7-0.8,1-1.6,1-2.4C42.1,22.7,42,22.3,41.8,21.8z
	 M2.8,29.5V11.5c0-0.5,0.2-1,0.6-1.4s0.9-0.6,1.5-0.6h4.4c0.6,0,1.1,0.2,1.5,0.6c0.2,0.2,0.4,0.4,0.5,0.7c0.1,0.2,0.2,0.5,0.2,0.7
	v1.3c0,0.3,0,0.5,0.1,0.7c0.1,0.2,0.3,0.4,0.5,0.6c0.4,0.4,0.9,0.6,1.5,0.6h15.6c0.6,0,1.1,0.2,1.5,0.6c0.2,0.2,0.4,0.4,0.5,0.7
	c0.1,0.2,0.2,0.5,0.2,0.7v3.2H14.4c-1,0-2,0.2-3.1,0.7c-1,0.5-1.9,1.1-2.5,1.8L2.8,29.5L2.8,29.5L2.8,29.5z M38.9,24l-6.4,7.3
	c-0.4,0.4-0.9,0.8-1.6,1.1c-0.7,0.3-1.3,0.4-1.9,0.4H5.3c-0.6,0-1-0.1-1.1-0.4c0-0.1-0.1-0.2-0.1-0.3c0-0.2,0.1-0.5,0.4-0.8L11,24
	c0.4-0.4,0.9-0.8,1.6-1.1s1.3-0.4,1.9-0.4h23.8c0.6,0,1,0.1,1.1,0.4c0,0.1,0.1,0.2,0.1,0.3C39.3,23.4,39.2,23.7,38.9,24z"/>
<path class="st0" d="M25.7,23.5c0.5,0,0.9,0,1.1,0.1c0.3,0.1,0.4,0.2,0.5,0.3c0.1,0.1,0.1,0.3,0.1,0.4c0,0.2-0.1,0.3-0.2,0.5
	c-0.1,0.1-0.2,0.3-0.3,0.4c-0.1,0.1-0.2,0.2-0.3,0.3c-0.6,0.5-1.3,1-2.1,1.3c-0.7,0.3-1.5,0.5-2.2,0.7c-0.7,0.2-1.4,0.3-1.9,0.3
	c-0.6,0-1,0.1-1.4,0.1c-0.3,0.4-0.5,0.7-0.7,1c-0.2,0.3-0.2,0.6-0.2,0.8c0,0.2,0.1,0.4,0.3,0.6c0.2,0.1,0.5,0.2,0.9,0.2
	c0.4,0,1-0.2,1.6-0.4c0.7-0.3,1.4-0.6,2.1-1c0.8-0.4,1.4-0.7,1.7-0.9c0.1,0,0.2-0.1,0.3-0.1c0.1,0,0.2,0,0.3,0c0.1,0,0.1,0,0.2,0.1
	c0.1,0-0.1,0.2-0.2,0.3c-0.1,0-0.9,0.5-1.6,0.9c-0.7,0.4-1.4,0.7-2.1,1c-0.7,0.3-1.3,0.5-1.9,0.7c-0.6,0.2-1.1,0.3-1.6,0.3
	c-0.8,0-1.3-0.1-1.7-0.3c-0.4-0.2-0.6-0.5-0.6-0.9c0-0.4,0.1-0.8,0.3-1.2s0.6-0.9,1.1-1.4c0.5-0.5,1-1,1.7-1.4
	c0.6-0.5,1.3-0.9,2.1-1.3c0.7-0.4,1.5-0.7,2.3-0.9C24.2,23.7,25,23.5,25.7,23.5z M25.4,24c-0.5,0.1-1,0.2-1.6,0.4
	c-0.5,0.2-1.1,0.5-1.6,0.8c-0.5,0.3-1,0.7-1.5,1.1c-0.5,0.4-0.9,0.8-1.2,1.2c0.2,0,0.5,0,0.9-0.1c0.4,0,0.9-0.1,1.4-0.2
	c0.5-0.1,1-0.3,1.6-0.6s1.1-0.6,1.6-1.1c0.4-0.4,0.7-0.7,0.8-0.9c0.1-0.2,0.2-0.4,0.2-0.5c0-0.1-0.1-0.2-0.2-0.2
	C25.6,24,25.5,24,25.4,24z"/>
</svg>
