<?xml version="1.0" encoding="utf-8"?>
<!-- Generator: Adobe Illustrator 24.3.0, SVG Export Plug-In . SVG Version: 6.00 Build 0)  -->
<svg version="1.1" id="Ebene_1" xmlns="http://www.w3.org/2000/svg" xmlns:xlink="http://www.w3.org/1999/xlink" x="0px" y="0px"
	 viewBox="0 0 42.5 42.5" style="enable-background:new 0 0 42.5 42.5;" xml:space="preserve">
<path d="M42.3,10.8c-0.2-0.5-0.4-0.8-0.7-1.1l-4.4-4.4c-0.3-0.3-0.6-0.5-1.1-0.7s-0.9-0.3-1.2-0.3H22.2c-0.4,0-0.7,0.1-1,0.4
	c-0.3,0.3-0.4,0.6-0.4,1v9.4l-7.5,0v-0.6c0-1.2-0.4-2.3-1.3-3.2c-0.9-0.9-1.9-1.3-3.1-1.3H4.5c-1.2,0-2.2,0.4-3.1,1.3
	s-1.3,1.9-1.3,3.2v19.3c0,1.2,0.4,2.3,1.3,3.2c0.9,0.9,1.9,1.3,3.1,1.3l24.7,0c1.2,0,2.2-0.4,3.1-1.3c0.9-0.9,1.3-1.9,1.3-3.2v-1
	h7.6c0.4,0,0.7-0.1,1-0.4c0.3-0.3,0.4-0.6,0.4-1V12C42.6,11.6,42.5,11.2,42.3,10.8z M35.5,7.2c0.2,0.1,0.4,0.2,0.5,0.3l3.6,3.6
	c0.1,0.1,0.2,0.3,0.3,0.5h-4.4V7.2z M31,33.7c0,0.5-0.2,1-0.6,1.4s-0.8,0.6-1.3,0.6l-24.7,0c-0.5,0-1-0.2-1.3-0.6
	c-0.4-0.4-0.6-0.8-0.6-1.4V14.4c0-0.5,0.2-1,0.6-1.4c0.4-0.4,0.8-0.6,1.3-0.6h4.4c0.5,0,1,0.2,1.3,0.6c0.4,0.4,0.6,0.8,0.6,1.4v1.3
	c0,0.5,0.2,1,0.6,1.4c0.4,0.4,0.8,0.6,1.3,0.6l16.5,0c0.5,0,1,0.2,1.3,0.6c0.4,0.4,0.6,0.8,0.6,1.4V33.7z M39.9,30.2h-6.3V19.6
	c0-1.2-0.4-2.3-1.3-3.2c-0.9-0.9-1.9-1.3-3.1-1.3l-5.6,0v-8h9.6l0,5.2c0,0.4,0.1,0.7,0.4,1c0.3,0.3,0.6,0.4,1,0.4h5.5L39.9,30.2z"/>
</svg>
