<?xml version="1.0" encoding="utf-8"?>
<!-- Generator: Adobe Illustrator 24.3.0, SVG Export Plug-In . SVG Version: 6.00 Build 0)  -->
<svg version="1.1" id="Ebene_1" xmlns="http://www.w3.org/2000/svg" xmlns:xlink="http://www.w3.org/1999/xlink" x="0px" y="0px"
	 viewBox="0 0 42.5 42.5" style="enable-background:new 0 0 42.5 42.5;" xml:space="preserve">
<style type="text/css">
	.st0{stroke:#000000;stroke-width:0.3571;stroke-miterlimit:10;}
</style>
<path d="M41.7,24.6c-0.3-0.6-0.8-1.1-1.5-1.4c-0.7-0.3-1.4-0.5-2.2-0.5h-0.7V13c0-1.1-0.4-2.1-1.3-2.9c-0.8-0.8-1.8-1.2-3-1.2H15.7
	V8.4c0-1.1-0.4-2.1-1.3-2.9c-0.8-0.8-1.8-1.2-3-1.2H7.1c-1.2,0-2.2,0.4-3,1.2C3.3,6.3,2.8,7.2,2.8,8.4v2.1c-0.4,0.2-0.7,0.4-1,0.7
	c-1,0.9-1.4,1.9-1.4,3.2v19.3c0,1.2,0.5,2.3,1.4,3.2c1,0.9,2.1,1.3,3.4,1.3H29c1,0,2-0.2,3.1-0.7c1.1-0.5,1.9-1.1,2.5-1.8l6.4-7.3
	c0.7-0.8,1-1.6,1-2.4C42.1,25.5,42,25,41.7,24.6z M5.2,8.3c0-0.5,0.2-0.9,0.5-1.2C6,6.7,6.5,6.6,7,6.6h4.3c0.5,0,0.9,0.2,1.3,0.5
	c0.4,0.3,0.5,0.8,0.5,1.2v1.2c0,0.5,0.2,0.9,0.5,1.2c0.4,0.3,0.8,0.5,1.3,0.5H33c0.5,0,0.9,0.2,1.3,0.5c0.4,0.3,0.5,0.8,0.5,1.2v9.7
	h-0.9v-3.2c0-1.2-0.5-2.3-1.4-3.2c-1-0.9-2.1-1.3-3.4-1.3H13.8v-0.6c0-1.2-0.5-2.3-1.4-3.2c-1-0.9-2.1-1.3-3.4-1.3H5.3
	c0,0-0.1,0-0.1,0V8.3z M2.7,32.2V14.3c0-0.5,0.2-1,0.6-1.4s0.9-0.6,1.5-0.6h4.4c0.6,0,1.1,0.2,1.5,0.6c0.2,0.2,0.4,0.4,0.5,0.7
	c0.1,0.2,0.2,0.5,0.2,0.7v1.3c0,0.3,0,0.5,0.1,0.7c0.1,0.2,0.3,0.4,0.5,0.6c0.4,0.4,0.9,0.6,1.5,0.6H29c0.6,0,1.1,0.2,1.5,0.6
	c0.2,0.2,0.4,0.4,0.5,0.7c0.1,0.2,0.2,0.5,0.2,0.7v3.2H14.4c-1,0-2,0.2-3.1,0.7c-1,0.5-1.9,1.1-2.5,1.8l-2,2.4c0,0,0,0,0,0l-1.6,1.9
	c0,0,0,0,0,0L2.7,32.2L2.7,32.2L2.7,32.2z M38.9,26.8l-6.4,7.3c-0.4,0.4-0.9,0.8-1.6,1.1s-1.3,0.4-1.9,0.4H5.3c-0.6,0-1-0.1-1.1-0.4
	c0-0.1-0.1-0.2-0.1-0.3c0-0.2,0.1-0.5,0.4-0.8l6.4-7.3c0.4-0.4,0.9-0.8,1.6-1.1s1.3-0.4,1.9-0.4h23.8c0.6,0,1,0.1,1.1,0.4
	c0,0.1,0.1,0.2,0.1,0.3C39.3,26.2,39.1,26.5,38.9,26.8z"/>
<path class="st0" d="M25.7,26.3c0.5,0,0.9,0,1.1,0.1c0.3,0.1,0.4,0.2,0.5,0.3c0.1,0.1,0.1,0.3,0.1,0.4c0,0.2-0.1,0.3-0.2,0.5
	c-0.1,0.1-0.2,0.3-0.3,0.4c-0.1,0.1-0.2,0.2-0.3,0.3c-0.6,0.5-1.3,1-2.1,1.3c-0.7,0.3-1.5,0.5-2.2,0.7c-0.7,0.2-1.4,0.3-1.9,0.3
	c-0.6,0-1,0.1-1.4,0.1c-0.3,0.4-0.5,0.7-0.7,1c-0.2,0.3-0.2,0.6-0.2,0.8c0,0.2,0.1,0.4,0.3,0.6s0.5,0.2,0.9,0.2c0.4,0,1-0.2,1.6-0.4
	c0.7-0.3,1.4-0.6,2.1-1c0.8-0.4,1.4-0.7,1.7-0.9c0.1,0,0.2-0.1,0.3-0.1c0.1,0,0.2,0,0.3,0c0.1,0,0.1,0,0.2,0.1
	c0.1,0-0.1,0.2-0.2,0.3c-0.1,0-0.9,0.5-1.6,0.9c-0.7,0.4-1.4,0.7-2.1,1c-0.7,0.3-1.3,0.5-1.9,0.7c-0.6,0.2-1.1,0.3-1.6,0.3
	c-0.8,0-1.3-0.1-1.7-0.3C16.2,33.6,16,33.3,16,33c0-0.4,0.1-0.8,0.3-1.2s0.6-0.9,1.1-1.4c0.5-0.5,1-1,1.7-1.4
	c0.6-0.5,1.3-0.9,2.1-1.3c0.7-0.4,1.5-0.7,2.3-0.9C24.2,26.5,24.9,26.3,25.7,26.3z M25.3,26.8c-0.5,0.1-1,0.2-1.6,0.4
	c-0.5,0.2-1.1,0.5-1.6,0.8c-0.5,0.3-1,0.7-1.5,1.1c-0.5,0.4-0.9,0.8-1.2,1.2c0.2,0,0.5,0,0.9-0.1c0.4,0,0.9-0.1,1.4-0.2
	c0.5-0.1,1-0.3,1.6-0.6c0.5-0.3,1.1-0.6,1.6-1.1c0.4-0.4,0.7-0.7,0.8-0.9c0.1-0.2,0.2-0.4,0.2-0.5c0-0.1-0.1-0.2-0.2-0.2
	C25.6,26.8,25.4,26.8,25.3,26.8z"/>
</svg>
