<?xml version="1.0" encoding="utf-8"?>
<!-- Generator: Adobe Illustrator 24.3.0, SVG Export Plug-In . SVG Version: 6.00 Build 0)  -->
<svg version="1.1" id="Ebene_1" xmlns="http://www.w3.org/2000/svg" xmlns:xlink="http://www.w3.org/1999/xlink" x="0px" y="0px"
	 viewBox="0 0 42.5 42.5" style="enable-background:new 0 0 42.5 42.5;" xml:space="preserve">
<path d="M36.6,13.5c-0.9-0.9-1.9-1.3-3.1-1.3l-15.9,0v-0.6c0-1.2-0.4-2.3-1.3-3.2S14.5,7,13.3,7H8.9C7.7,7,6.6,7.5,5.8,8.4
	c-0.9,0.9-1.3,1.9-1.3,3.2v19.3c0,1.2,0.4,2.3,1.3,3.2c0.9,0.9,1.9,1.3,3.1,1.3l24.7,0c1.2,0,2.2-0.4,3.1-1.3
	c0.9-0.9,1.3-1.9,1.3-3.2V16.7C37.9,15.4,37.5,14.4,36.6,13.5z M35.4,30.8c0,0.5-0.2,1-0.6,1.4c-0.4,0.4-0.8,0.6-1.3,0.6l-24.7,0
	c-0.5,0-1-0.2-1.3-0.6c-0.4-0.4-0.6-0.8-0.6-1.4V11.5c0-0.5,0.2-1,0.6-1.4c0.4-0.4,0.8-0.6,1.3-0.6h4.4c0.5,0,1,0.2,1.3,0.6
	c0.4,0.4,0.6,0.8,0.6,1.4v1.3c0,0.5,0.2,1,0.6,1.4c0.4,0.4,0.8,0.6,1.3,0.6l16.5,0c0.5,0,1,0.2,1.3,0.6c0.4,0.4,0.6,0.8,0.6,1.4
	V30.8z M27.1,22.5v-3.5c0-0.3-0.2-0.5-0.5-0.5h-3.5c0-1.1-0.9-2-2-2c-1.1,0-2,0.9-2,2h-3.5c-0.3,0-0.5,0.2-0.5,0.5v4.5
	c0,0.3,0.2,0.5,0.5,0.5c0.1,0,0.2,0,0.3-0.1c0.4-0.4,1.1-0.3,1.4,0.1c0.4,0.4,0.3,1.1-0.1,1.4c-0.4,0.4-1,0.4-1.4,0
	c-0.2-0.2-0.5-0.2-0.7,0C15,25.4,15,25.5,15,25.6v4.5c0,0.3,0.2,0.5,0.5,0.5h4.5c0.3,0,0.5-0.2,0.5-0.5c0-0.1,0-0.2-0.1-0.3
	c-0.4-0.4-0.3-1.1,0.1-1.4s1.1-0.3,1.4,0.1c0.4,0.4,0.4,1,0,1.4c-0.2,0.2-0.2,0.5,0,0.7c0.1,0.1,0.2,0.1,0.3,0.1h4.5
	c0.3,0,0.5-0.2,0.5-0.5v-3.5c1.1,0,2-0.9,2-2C29.2,23.4,28.3,22.5,27.1,22.5z"/>
</svg>
