<?xml version="1.0" encoding="utf-8"?>
<!-- Generator: Adobe Illustrator 24.3.0, SVG Export Plug-In . SVG Version: 6.00 Build 0)  -->
<svg version="1.1" id="Ebene_1" xmlns="http://www.w3.org/2000/svg" xmlns:xlink="http://www.w3.org/1999/xlink" x="0px" y="0px"
	 viewBox="0 0 42.5 42.5" style="enable-background:new 0 0 42.5 42.5;" xml:space="preserve">
<path d="M41.7,22c-0.3-0.6-0.8-1.1-1.5-1.4c-0.2-0.1-0.4-0.2-0.6-0.3v-5.4c0-0.4-0.1-0.8-0.3-1.2c-0.2-0.5-0.4-0.8-0.7-1.1l-4.4-4.4
	c-0.3-0.3-0.6-0.5-1.1-0.7c-0.5-0.2-0.9-0.3-1.2-0.3H19.2c-0.4,0-0.7,0.1-1,0.4c-0.3,0.3-0.4,0.6-0.4,1v3.8h-4.1v-0.6
	c0-1.2-0.5-2.3-1.4-3.2c-1-0.9-2.1-1.3-3.4-1.3H5.3c-1.3,0-2.5,0.4-3.4,1.3c-1,0.9-1.4,1.9-1.4,3.2V31c0,1.2,0.5,2.3,1.4,3.2
	c1,0.9,2.1,1.3,3.4,1.3H29c1,0,2-0.2,3.1-0.7c1.1-0.5,1.9-1.1,2.5-1.8l6.4-7.3c0.7-0.8,1-1.6,1-2.4C42.1,22.9,42,22.4,41.7,22z
	 M33,10.3l3.6,3.6c0.1,0.1,0.2,0.3,0.3,0.5h-4.4v-4.4C32.8,10.2,32.9,10.2,33,10.3z M20.7,10h9.6l0,5.2c0,0.4,0.1,0.7,0.4,1
	s0.6,0.4,1,0.4h5.5l0,3.6H20.7V10z M2.8,11.7c0-0.5,0.2-1,0.6-1.4s0.9-0.6,1.5-0.6h4.4c0.6,0,1.1,0.2,1.5,0.6s0.6,0.8,0.6,1.4V13
	c0,0.5,0.2,1,0.6,1.4c0.4,0.4,0.9,0.6,1.5,0.6h4.4v5.2h-3.5c-1,0-2,0.2-3.1,0.7c-1,0.5-1.9,1.1-2.5,1.8l-6,7.1V11.7z M38.9,24.2
	l-6.4,7.3c-0.4,0.4-0.9,0.8-1.6,1.1c-0.7,0.3-1.3,0.4-1.9,0.4H5.3c-0.4,0-0.7-0.1-0.9-0.2c-0.2-0.1-0.3-0.3-0.3-0.5
	c0-0.2,0.1-0.5,0.4-0.8l6.4-7.3c0.4-0.4,0.9-0.8,1.6-1.1s1.3-0.4,1.9-0.4h23.8c0.4,0,0.7,0.1,0.9,0.2c0.2,0.1,0.3,0.3,0.3,0.5
	C39.3,23.6,39.2,23.9,38.9,24.2z"/>
</svg>
