<?xml version="1.0" encoding="utf-8"?>
<!-- Generator: Adobe Illustrator 24.3.0, SVG Export Plug-In . SVG Version: 6.00 Build 0)  -->
<svg version="1.1" id="Ebene_1" xmlns="http://www.w3.org/2000/svg" xmlns:xlink="http://www.w3.org/1999/xlink" x="0px" y="0px"
	 viewBox="0 0 42.5 42.5" style="enable-background:new 0 0 42.5 42.5;" xml:space="preserve">
<path id="Icon_FileManager_5_" d="M39.3,23.2c0-0.5-0.4-0.7-1.2-0.7H14.4c-0.6,0-1.2,0.1-1.9,0.4S11.4,23.5,11,24l-6.4,7.3
	c-0.3,0.3-0.4,0.6-0.4,0.8c0,0.5,0.4,0.7,1.2,0.7h23.8c0.6,0,1.2-0.1,1.9-0.4c0.7-0.3,1.2-0.7,1.6-1.1l6.4-7.3
	C39.2,23.7,39.3,23.4,39.3,23.2z M14.4,19.9h16.8v-3.2c0-0.5-0.2-1-0.6-1.4c-0.4-0.4-0.9-0.6-1.5-0.6H13.5c-0.6,0-1.1-0.2-1.5-0.6
	c-0.4-0.4-0.6-0.8-0.6-1.4v-1.3c0-0.5-0.2-1-0.6-1.4c-0.4-0.4-0.9-0.6-1.5-0.6H4.9c-0.6,0-1.1,0.2-1.5,0.6C3,10.5,2.8,11,2.8,11.5
	v17.9l6-7.1c0.6-0.7,1.5-1.3,2.5-1.8C12.4,20.1,13.4,19.9,14.4,19.9z M42.1,23.2c0,0.8-0.3,1.6-1,2.4l-6.4,7.3
	c-0.6,0.7-1.5,1.3-2.5,1.8c-1.1,0.5-2.1,0.7-3.1,0.7H5.3c-1.3,0-2.5-0.4-3.4-1.3s-1.4-1.9-1.4-3.2V11.5c0-1.2,0.5-2.3,1.4-3.2
	C2.8,7.5,4,7,5.3,7h3.6c1.3,0,2.5,0.4,3.4,1.3c1,0.9,1.4,1.9,1.4,3.2v0.6h15.2c1.3,0,2.5,0.4,3.4,1.3c1,0.9,1.4,1.9,1.4,3.2v3.2h4.2
	c0.8,0,1.5,0.2,2.2,0.5c0.7,0.3,1.1,0.8,1.5,1.4C42,22.2,42.1,22.7,42.1,23.2z"/>
<path d="M30.6,24.1h-11c-0.8,0-1.9,0.6-2.6,1.4l-6.3,7.2C10,33.4,11.1,34,11.8,34h8.7c0.8,0,3.2-0.6,3.9-1.4l6.3-7.2
	C31.4,24.7,31.3,24.1,30.6,24.1z M21.6,32.7H13l6.1-6.9h8.6L21.6,32.7z M18.4,27.8l2.6-1.2c0.5-0.3,1-0.2,0.9,0.1l0,0.1
	c0,0.3-0.5,0.8-1,1l-2.6,1.2c-0.5,0.3-1,0.2-0.9-0.1l0-0.1C17.4,28.5,17.8,28.1,18.4,27.8z"/>
</svg>
