<?xml version="1.0" encoding="utf-8"?>
<!-- Generator: Adobe Illustrator 24.3.0, SVG Export Plug-In . SVG Version: 6.00 Build 0)  -->
<svg version="1.1" id="Ebene_1" xmlns="http://www.w3.org/2000/svg" xmlns:xlink="http://www.w3.org/1999/xlink" x="0px" y="0px"
	 viewBox="0 0 42.5 42.5" style="enable-background:new 0 0 42.5 42.5;" xml:space="preserve">
<style type="text/css">
	.st0{display:none;}
	.st1{display:inline;}
	.st2{display:inline;stroke:#000000;stroke-width:0.5;stroke-miterlimit:10;}
</style>
<path id="plan_offen" d="M39.3,23.2c0-0.5-0.4-0.7-1.2-0.7H14.4c-0.6,0-1.2,0.1-1.9,0.4S11.4,23.5,11,24l-6.4,7.3
	c-0.3,0.3-0.4,0.6-0.4,0.8c0,0.5,0.4,0.7,1.2,0.7h23.8c0.6,0,1.2-0.1,1.9-0.4c0.7-0.3,1.2-0.7,1.6-1.1l6.4-7.3
	C39.2,23.7,39.3,23.4,39.3,23.2z M14.4,19.9h16.8v-3.2c0-0.5-0.2-1-0.6-1.4c-0.4-0.4-0.9-0.6-1.5-0.6H13.5c-0.6,0-1.1-0.2-1.5-0.6
	c-0.4-0.4-0.6-0.8-0.6-1.4v-1.3c0-0.5-0.2-1-0.6-1.4c-0.4-0.4-0.9-0.6-1.5-0.6H4.9c-0.6,0-1.1,0.2-1.5,0.6C3,10.5,2.8,11,2.8,11.5
	v17.9l6-7.1c0.6-0.7,1.5-1.3,2.5-1.8C12.4,20.1,13.4,19.9,14.4,19.9z M42.1,23.2c0,0.8-0.3,1.6-1,2.4l-6.4,7.3
	c-0.6,0.7-1.5,1.3-2.5,1.8c-1.1,0.5-2.1,0.7-3.1,0.7H5.3c-1.3,0-2.5-0.4-3.4-1.3s-1.4-1.9-1.4-3.2V11.5c0-1.2,0.5-2.3,1.4-3.2
	C2.8,7.5,4,7,5.3,7h3.6c1.3,0,2.5,0.4,3.4,1.3c1,0.9,1.4,1.9,1.4,3.2v0.6h15.2c1.3,0,2.5,0.4,3.4,1.3c1,0.9,1.4,1.9,1.4,3.2v3.2h4.2
	c0.8,0,1.5,0.2,2.2,0.5c0.7,0.3,1.1,0.8,1.5,1.4C42,22.2,42.1,22.7,42.1,23.2z M25.2,24l3.2,0.8l-4.9,5.8l-3.2-0.8L25.2,24z
	 M19.1,25.2l4.9-1.1l-4.9,5.7l-4.9,1.1L19.1,25.2z M29.4,25l3.8,0.2l-5,5.8l-3.8-0.2L29.4,25z M13.1,31L10,30l4.9-5.8l3.1,1L13.1,31
	z"/>
<g id="gruppe_geschlossen" class="st0">
	<path class="st1" d="M41.1,11.1c-0.9-0.9-2-1.4-3.3-1.4H19V9c0-1.3-0.5-2.4-1.4-3.3c-0.9-0.9-2-1.4-3.3-1.4H9.7
		c-1.3,0-2.4,0.5-3.3,1.4C5.7,6.5,5.3,7.4,5.2,8.5H4.6c-1.3,0-2.4,0.5-3.3,1.4c-0.9,0.9-1.4,2-1.4,3.3v20.3c0,1.3,0.5,2.4,1.4,3.3
		c0.9,0.9,2,1.4,3.3,1.4h28.1c1.3,0,2.4-0.5,3.3-1.4c0.8-0.8,1.2-1.7,1.3-2.8h0.5c1.3,0,2.4-0.5,3.3-1.4c0.9-0.9,1.4-2,1.4-3.3V14.4
		C42.5,13.1,42,12,41.1,11.1z M34.7,33.4c0,0.6-0.2,1-0.6,1.4c-0.4,0.4-0.9,0.6-1.4,0.6H4.6c-0.6,0-1-0.2-1.4-0.6
		c-0.4-0.4-0.6-0.9-0.6-1.4V13.2c0-0.6,0.2-1,0.6-1.4c0.4-0.4,0.9-0.6,1.4-0.6h4.6c0.6,0,1,0.2,1.4,0.6c0.4,0.4,0.6,0.9,0.6,1.4v1.4
		c0,0.6,0.2,1,0.6,1.4c0.4,0.4,0.9,0.6,1.4,0.6h19.5c0.6,0,1,0.2,1.4,0.6s0.6,0.9,0.6,1.4V33.4z M39.7,29.2c0,0.6-0.2,1-0.6,1.4
		s-0.9,0.6-1.4,0.6h-0.3V18.6c0-1.3-0.5-2.4-1.4-3.3c-0.9-0.9-2-1.4-3.3-1.4H13.9v-0.7c0-1.3-0.5-2.4-1.4-3.3
		c-0.9-0.9-2-1.4-3.3-1.4H7.7c0.1-0.4,0.3-0.7,0.5-0.9C8.6,7.1,9,6.9,9.6,6.9h4.6c0.6,0,1,0.2,1.4,0.6s0.6,0.9,0.6,1.4v1.4
		c0,0.6,0.2,1,0.6,1.4c0.4,0.4,0.9,0.6,1.4,0.6h19.5c0.6,0,1,0.2,1.4,0.6c0.4,0.4,0.6,0.9,0.6,1.4V29.2z"/>
	<path class="st2" d="M21,18.8c0.5,0,1,0,1.3,0.2c0.3,0.1,0.6,0.3,0.8,0.5c0.2,0.2,0.3,0.5,0.4,0.8c0.1,0.3,0.1,0.6,0.1,0.9
		c0,0.3,0,0.5-0.1,0.8c0,0.2-0.1,0.4-0.1,0.5c-0.3,1-0.8,1.8-1.4,2.3c-0.6,0.6-1.2,1-1.9,1.2c-0.7,0.3-1.3,0.4-1.9,0.5
		c-0.6,0.1-1.1,0.1-1.4,0.1c-0.1,0.7-0.1,1.3-0.1,1.9c0,0.6,0.1,1.1,0.3,1.5c0.2,0.4,0.4,0.8,0.7,1s0.6,0.4,1.1,0.3
		c0.4,0,0.9-0.3,1.5-0.7c0.5-0.5,1.1-1,1.7-1.7c0.6-0.7,1-1.3,1.3-1.6c0-0.1,0.2-0.1,0.3-0.2c0.1,0,0.2,0,0.3,0s0.2,0.1,0.2,0.1
		c0.1,0.1,0.1,0.5,0,0.6c0,0.1-0.6,0.9-1.2,1.6c-0.6,0.7-1.1,1.3-1.6,1.8c-0.5,0.5-1.1,1-1.6,1.3c-0.5,0.3-1,0.5-1.5,0.5
		c-0.8,0-1.5-0.2-2-0.6c-0.5-0.4-0.9-0.9-1.2-1.6c-0.3-0.7-0.4-1.4-0.4-2.2s0.1-1.7,0.3-2.6c0.2-0.9,0.5-1.7,0.9-2.6
		c0.4-0.8,0.9-1.6,1.4-2.3c0.6-0.7,1.2-1.2,1.8-1.6C19.5,19.1,20.3,18.9,21,18.8z M21,19.7c-0.5,0.1-1,0.3-1.4,0.7
		c-0.4,0.4-0.9,0.9-1.2,1.5s-0.7,1.2-0.9,1.9c-0.3,0.7-0.4,1.4-0.6,2.2c0.2,0,0.5,0,1-0.1s0.9-0.2,1.3-0.4c0.5-0.2,0.9-0.6,1.4-1
		s0.8-1.1,1.1-1.9c0.2-0.7,0.3-1.2,0.3-1.6c0-0.4,0-0.7-0.1-0.9c-0.1-0.2-0.2-0.3-0.4-0.4S21.1,19.7,21,19.7z"/>
</g>
</svg>
