<?xml version="1.0" encoding="utf-8"?>
<!-- Generator: Adobe Illustrator 24.3.0, SVG Export Plug-In . SVG Version: 6.00 Build 0)  -->
<svg version="1.1" id="Ebene_1" xmlns="http://www.w3.org/2000/svg" xmlns:xlink="http://www.w3.org/1999/xlink" x="0px" y="0px"
	 viewBox="0 0 42.5 42.5" style="enable-background:new 0 0 42.5 42.5;" xml:space="preserve">
<style type="text/css">
	.st0{stroke:#000000;stroke-width:0.5;stroke-miterlimit:10;}
</style>
<path d="M36.6,13.4c-0.9-0.9-1.9-1.3-3.1-1.3l-15.9,0v-0.6c0-1.2-0.4-2.3-1.3-3.2C15.5,7.4,14.4,7,13.2,7H8.8C7.6,7,6.6,7.4,5.7,8.3
	c-0.9,0.9-1.3,1.9-1.3,3.2v19.3c0,1.2,0.4,2.3,1.3,3.2c0.9,0.9,1.9,1.3,3.1,1.3l24.7,0c1.2,0,2.2-0.4,3.1-1.3s1.3-1.9,1.3-3.2V16.6
	C37.9,15.4,37.5,14.3,36.6,13.4z M35.4,30.7c0,0.5-0.2,1-0.6,1.4c-0.4,0.4-0.8,0.6-1.3,0.6l-24.7,0c-0.5,0-1-0.2-1.3-0.6
	c-0.4-0.4-0.6-0.8-0.6-1.4V11.5c0-0.5,0.2-1,0.6-1.4c0.4-0.4,0.8-0.6,1.3-0.6h4.4c0.5,0,1,0.2,1.3,0.6c0.4,0.4,0.6,0.8,0.6,1.4v1.3
	c0,0.5,0.2,1,0.6,1.4c0.4,0.4,0.8,0.6,1.3,0.6l16.5,0c0.5,0,1,0.2,1.3,0.6c0.4,0.4,0.6,0.8,0.6,1.4V30.7z"/>
<path class="st0" d="M23.1,16.8c0.5,0,1,0,1.3,0.2c0.3,0.1,0.6,0.3,0.8,0.5c0.2,0.2,0.3,0.5,0.4,0.8c0.1,0.3,0.1,0.6,0.1,0.9
	c0,0.3,0,0.5-0.1,0.8c0,0.2-0.1,0.4-0.1,0.5c-0.3,1-0.8,1.8-1.4,2.3c-0.6,0.6-1.2,1-1.9,1.2c-0.7,0.3-1.3,0.4-1.9,0.5
	c-0.6,0.1-1.1,0.1-1.4,0.1c-0.1,0.7-0.1,1.3-0.1,1.9c0,0.6,0.1,1.1,0.3,1.5c0.2,0.4,0.4,0.8,0.7,1s0.6,0.4,1.1,0.3
	c0.4,0,0.9-0.3,1.5-0.7c0.5-0.5,1.1-1,1.7-1.7c0.6-0.7,1-1.3,1.3-1.6c0-0.1,0.2-0.1,0.3-0.2c0.1,0,0.2,0,0.3,0s0.2,0.1,0.2,0.1
	c0.1,0.1,0.1,0.5,0,0.6c0,0.1-0.6,0.9-1.2,1.6c-0.6,0.7-1.1,1.3-1.6,1.8c-0.5,0.5-1.1,1-1.6,1.3C21,30.8,20.5,31,20,31
	c-0.8,0-1.5-0.2-2-0.6c-0.5-0.4-0.9-0.9-1.2-1.6c-0.3-0.7-0.4-1.4-0.4-2.2s0.1-1.7,0.3-2.6c0.2-0.9,0.5-1.7,0.9-2.6s0.9-1.6,1.4-2.3
	c0.6-0.7,1.2-1.2,1.8-1.6C21.6,17,22.3,16.8,23.1,16.8z M23,17.6c-0.5,0.1-1,0.3-1.4,0.7c-0.4,0.4-0.9,0.9-1.2,1.5s-0.7,1.2-0.9,1.9
	c-0.3,0.7-0.4,1.4-0.6,2.2c0.2,0,0.5,0,1-0.1s0.9-0.2,1.3-0.4c0.5-0.2,0.9-0.6,1.4-1s0.8-1.1,1.1-1.9c0.2-0.7,0.3-1.2,0.3-1.6
	c0-0.4,0-0.7-0.1-0.9c-0.1-0.2-0.2-0.3-0.4-0.4S23.1,17.6,23,17.6z"/>
</svg>
